<svg width="226" height="295" viewBox="0 0 226 295" fill="none" xmlns="http://www.w3.org/2000/svg">
<path d="M180.299 40.493H92.18C87.6692 40.5104 83.3482 42.3106 80.1593 45.501C76.9704 48.6914 75.1723 53.0132 75.157 57.524V277.371C75.1707 281.882 76.9686 286.203 80.1581 289.393C83.3475 292.582 87.6694 294.38 92.18 294.394H180.299C184.811 294.382 189.134 292.584 192.325 289.395C195.516 286.205 197.315 281.883 197.329 277.371V57.524C197.313 53.0121 195.514 48.6894 192.324 45.4988C189.134 42.3083 184.811 40.5089 180.299 40.493ZM180.638 47.942C183.277 47.9505 185.806 49.0032 187.671 50.8702C189.537 52.7373 190.588 55.2667 190.594 57.906V268.629C190.588 271.268 189.537 273.796 187.671 275.662C185.805 277.528 183.277 278.579 180.638 278.586H92.238C89.5987 278.579 87.0693 277.528 85.2025 275.663C83.3357 273.797 82.2832 271.268 82.275 268.629V57.908C82.2845 55.2685 83.3372 52.7398 85.2035 50.8733C87.0698 49.0067 89.5985 47.9538 92.238 47.944L180.638 47.942Z" fill="#29293D"/>
<path d="M180.299 40.077H92.18C87.5554 40.0836 83.1221 41.9241 79.8526 45.1948C76.583 48.4655 74.744 52.8994 74.739 57.524V277.371C74.7443 281.995 76.5833 286.427 79.8526 289.696C83.1219 292.966 87.5545 294.805 92.178 294.81H180.299C184.923 294.805 189.356 292.966 192.625 289.697C195.895 286.427 197.734 281.995 197.739 277.371V57.524C197.734 52.8998 195.895 48.4664 192.626 45.1958C189.357 41.9252 184.924 40.0844 180.3 40.077M196.914 277.371C196.907 281.774 195.154 285.995 192.04 289.108C188.925 292.221 184.703 293.972 180.3 293.977H92.18C87.7773 293.972 83.5563 292.221 80.4431 289.108C77.3299 285.995 75.5788 281.774 75.574 277.371V57.524C75.5785 53.1204 77.3292 48.8983 80.4422 45.7836C83.5552 42.6689 87.7764 40.9159 92.18 40.909H180.299C184.703 40.9159 188.925 42.6686 192.04 45.7831C195.154 48.8976 196.906 53.1197 196.913 57.524L196.914 277.371Z" fill="#CCCCCC"/>
<path opacity="0.3" d="M190.593 57.906V268.63C190.587 271.269 189.536 273.797 187.67 275.663C185.804 277.529 183.276 278.58 180.637 278.586H92.2371C89.5978 278.58 87.0683 277.529 85.2013 275.663C83.3343 273.798 82.2815 271.269 82.2731 268.63V57.906C82.2812 55.2659 83.3336 52.7363 85.2005 50.8694C87.0673 49.0026 89.597 47.9502 92.2371 47.942H180.637C183.276 47.9505 185.805 49.0032 187.671 50.8702C189.536 52.7372 190.587 55.2667 190.593 57.906Z" fill="#FC6011"/>
<path d="M127.051 49.47C127.563 49.4692 128.064 49.6202 128.49 49.9038C128.916 50.1875 129.249 50.5911 129.446 51.0638C129.643 51.5364 129.695 52.0567 129.596 52.5591C129.498 53.0615 129.252 53.5234 128.891 53.8864C128.53 54.2494 128.07 54.4973 127.568 54.5987C127.066 54.7001 126.545 54.6504 126.072 54.4561C125.598 54.2617 125.193 53.9313 124.907 53.5066C124.621 53.0819 124.467 52.582 124.465 52.07C124.464 51.7295 124.53 51.3921 124.66 51.0771C124.789 50.7622 124.979 50.4758 125.219 50.2344C125.46 49.993 125.745 49.8012 126.059 49.67C126.373 49.5389 126.71 49.4709 127.051 49.47Z" fill="#3B414B"/>
<path d="M147.927 51.816C147.95 52.2796 147.833 52.7393 147.592 53.136C147.351 53.5326 146.997 53.8478 146.575 54.0411C146.153 54.2344 145.683 54.2968 145.225 54.2202C144.767 54.1437 144.343 53.9317 144.007 53.6117C143.671 53.2917 143.438 52.8782 143.339 52.4248C143.24 51.9713 143.28 51.4986 143.452 51.0677C143.624 50.6368 143.922 50.2674 144.306 50.0072C144.69 49.747 145.144 49.608 145.608 49.608C146.208 49.5941 146.789 49.8187 147.224 50.2326C147.659 50.6465 147.912 51.216 147.927 51.816Z" fill="#515760"/>
<path d="M140.269 50.755V52.064C140.27 52.2329 140.237 52.4002 140.172 52.5563C140.108 52.7125 140.013 52.8544 139.894 52.9738C139.774 53.0932 139.633 53.1878 139.476 53.2522C139.32 53.3166 139.153 53.3495 138.984 53.349H133.904C133.563 53.3487 133.237 53.2132 132.996 52.9723C132.755 52.7314 132.619 52.4047 132.619 52.064V50.755C132.621 50.4147 132.757 50.089 132.997 49.8484C133.238 49.6078 133.564 49.4718 133.904 49.47H138.984C139.325 49.4702 139.651 49.6057 139.892 49.8466C140.133 50.0876 140.269 50.4143 140.269 50.755Z" fill="#1A1F29"/>
<path d="M129.644 52.0611C129.645 51.5488 129.494 51.0478 129.21 50.6215C128.926 50.1951 128.522 49.8625 128.049 49.6657C127.576 49.469 127.055 49.4169 126.553 49.516C126.05 49.6152 125.588 49.8612 125.225 50.2228C124.863 50.5845 124.615 51.0456 124.515 51.5479C124.414 52.0501 124.464 52.5709 124.66 53.0445C124.855 53.5181 125.186 53.9231 125.612 54.2083C126.037 54.4936 126.538 54.6463 127.05 54.6471C127.737 54.6476 128.396 54.3756 128.882 53.8907C129.368 53.4058 129.642 52.7478 129.644 52.0611ZM138.985 49.4671H133.904C133.564 49.4686 133.238 49.6046 132.998 49.8452C132.757 50.0859 132.621 50.4118 132.62 50.7521V52.0611C132.62 52.4016 132.755 52.7282 132.996 52.969C133.237 53.2098 133.564 53.3451 133.904 53.3451H138.985C139.154 53.3457 139.321 53.313 139.477 53.2487C139.634 53.1844 139.775 53.0899 139.895 52.9705C140.014 52.8512 140.109 52.7094 140.173 52.5533C140.238 52.3972 140.271 52.2299 140.27 52.0611V50.7611C140.27 50.4203 140.134 50.0936 139.893 49.8527C139.652 49.6118 139.326 49.4763 138.985 49.4761M116.955 47.951H156.075C156.075 47.951 151.865 48.6811 151.832 52.6341C151.799 56.5871 148.476 57.2501 145.499 57.2501H127.535C124.56 57.2501 121.245 56.5791 121.202 52.6341C121.159 48.6891 116.959 47.951 116.959 47.951M145.612 49.6171C145.181 49.6392 144.765 49.7874 144.417 50.0434C144.069 50.2994 143.803 50.652 143.654 51.0573C143.504 51.4627 143.477 51.903 143.575 52.3239C143.673 52.7447 143.893 53.1274 144.206 53.4247C144.52 53.7219 144.914 53.9206 145.339 53.9962C145.765 54.0717 146.203 54.0207 146.6 53.8496C146.996 53.6784 147.334 53.3946 147.571 53.0333C147.808 52.6721 147.934 52.2492 147.933 51.8171C147.915 51.2181 147.661 50.6506 147.226 50.2384C146.791 49.8261 146.211 49.6028 145.612 49.6171Z" fill="#3E394F"/>
<path d="M193.064 57.006V268.63H190.591V57.906C190.585 55.267 189.535 52.7376 187.67 50.8706C185.804 49.0036 183.276 47.9507 180.637 47.942H92.2371C89.597 47.9502 87.0673 49.0026 85.2005 50.8694C83.3337 52.7363 82.2813 55.2659 82.2731 57.906V268.63H79.9551V57.006C79.9667 53.4772 81.3736 50.0962 83.8689 47.6009C86.3642 45.1056 89.7452 43.6986 93.2741 43.687H179.745C183.275 43.6957 186.657 45.1018 189.153 47.5977C191.649 50.0936 193.055 53.4763 193.064 57.006Z" fill="#3E394F"/>
<path d="M193.064 268.63V277.864C193.054 281.393 191.647 284.775 189.152 287.271C186.656 289.766 183.274 291.173 179.745 291.183H93.2741C89.7457 291.17 86.3656 289.762 83.8707 287.267C81.3757 284.772 79.9682 281.392 79.9551 277.864V268.63H82.2741C82.2823 271.269 83.3349 273.798 85.202 275.664C87.0691 277.529 89.5987 278.58 92.2381 278.586H180.638C183.276 278.579 185.805 277.528 187.67 275.663C189.535 273.797 190.586 271.268 190.592 268.63H193.064Z" fill="#3E394F"/>
<g style="mix-blend-mode:multiply">
<mask id="mask0_180_4815" style="mask-type:luminance" maskUnits="userSpaceOnUse" x="119" y="68" width="51" height="51">
<path d="M169.802 68.579H119.497V118.885H169.802V68.579Z" fill="white"/>
</mask>
<g mask="url(#mask0_180_4815)">
<path d="M161.749 118.885H127.549C125.415 118.878 123.37 118.027 121.861 116.518C120.353 115.008 119.503 112.963 119.497 110.829V76.6289C119.503 74.4953 120.354 72.4508 121.862 70.9419C123.371 69.4331 125.415 68.5825 127.549 68.5759H161.749C163.883 68.582 165.928 69.4324 167.436 70.9414C168.945 72.4503 169.795 74.4951 169.801 76.6289V110.829C169.795 112.963 168.945 115.008 167.436 116.516C165.928 118.025 163.883 118.876 161.749 118.882" fill="#FC6011"/>
</g>
</g>
<g style="mix-blend-mode:multiply">
<mask id="mask1_180_4815" style="mask-type:luminance" maskUnits="userSpaceOnUse" x="175" y="67" width="51" height="51">
<path d="M225.443 67.537H175.138V117.842H225.443V67.537Z" fill="white"/>
</mask>
<g mask="url(#mask1_180_4815)">
<path d="M217.39 117.842H183.19C181.056 117.836 179.012 116.985 177.503 115.476C175.994 113.967 175.143 111.923 175.137 109.789V75.589C175.143 73.4552 175.994 71.4105 177.503 69.9017C179.012 68.3928 181.056 67.5423 183.19 67.536H217.39C219.524 67.5421 221.569 68.3925 223.078 69.9014C224.587 71.4103 225.437 73.4551 225.443 75.589V109.789C225.437 111.923 224.587 113.968 223.078 115.477C221.569 116.986 219.524 117.836 217.39 117.842Z" fill="#FC6011"/>
</g>
</g>
<g style="mix-blend-mode:multiply">
<mask id="mask2_180_4815" style="mask-type:luminance" maskUnits="userSpaceOnUse" x="119" y="129" width="51" height="52">
<path d="M169.802 129.731H119.497V180.036H169.802V129.731Z" fill="white"/>
</mask>
<g mask="url(#mask2_180_4815)">
<path d="M161.749 180.035H127.549C125.415 180.028 123.371 179.178 121.862 177.669C120.354 176.16 119.503 174.116 119.497 171.982V137.782C119.503 135.648 120.354 133.604 121.862 132.095C123.371 130.586 125.415 129.736 127.549 129.729H161.749C163.883 129.735 165.928 130.585 167.436 132.094C168.945 133.603 169.795 135.648 169.801 137.782V171.982C169.795 174.116 168.945 176.161 167.436 177.67C165.928 179.179 163.883 180.029 161.749 180.035Z" fill="#FC6011"/>
</g>
</g>
<g style="mix-blend-mode:multiply">
<mask id="mask3_180_4815" style="mask-type:luminance" maskUnits="userSpaceOnUse" x="175" y="128" width="51" height="51">
<path d="M225.443 128.688H175.138V178.993H225.443V128.688Z" fill="white"/>
</mask>
<g mask="url(#mask3_180_4815)">
<path d="M217.39 178.993H183.19C181.056 178.987 179.012 178.136 177.503 176.627C175.994 175.118 175.143 173.074 175.137 170.94V136.74C175.143 134.606 175.994 132.562 177.503 131.053C179.012 129.544 181.056 128.693 183.19 128.687H217.39C219.524 128.693 221.569 129.543 223.078 131.052C224.587 132.561 225.437 134.606 225.443 136.74V170.94C225.437 173.074 224.587 175.119 223.078 176.628C221.569 178.137 219.524 178.987 217.39 178.993Z" fill="#FC6011"/>
</g>
</g>
<path d="M218.889 163.298H180.477V166.12H218.889V163.298Z" fill="white"/>
<path d="M196.127 139.181C196.126 138.561 196.309 137.955 196.653 137.438C196.996 136.922 197.485 136.52 198.058 136.282C198.63 136.043 199.26 135.98 199.869 136.1C200.477 136.22 201.036 136.518 201.475 136.956C201.914 137.393 202.214 137.952 202.336 138.56C202.458 139.167 202.397 139.798 202.16 140.371C201.924 140.944 201.523 141.435 201.008 141.78C200.493 142.125 199.887 142.31 199.267 142.311C198.436 142.31 197.64 141.98 197.051 141.394C196.463 140.807 196.131 140.012 196.127 139.181Z" fill="white"/>
<path d="M218.14 161.245H181.728C181.728 161.245 180.261 143.603 199.688 144.137C211.366 144.456 215.677 150.551 217.247 155.374C217.88 157.265 218.182 159.251 218.14 161.245Z" fill="white"/>
<path d="M8.64903 112.312L47.844 188.059C52.174 196.427 60.412 201.087 67.408 199.675C72.602 194.78 73.555 185.364 69.226 176.997L30.026 101.249C25.696 92.881 17.446 88.197 10.45 89.61C8.20355 91.8207 6.72367 94.6925 6.22703 97.805C5.79922 100.16 5.79143 102.572 6.20403 104.93C6.6071 107.508 7.43179 110.003 8.64503 112.313" fill="#FFC377"/>
<path d="M0.322015 100.865C-0.484207 105.833 0.365795 110.928 2.74101 115.365L41.941 191.111C46.946 200.785 57.191 205.511 64.691 201.629C65.6905 201.116 66.6074 200.455 67.411 199.67C60.411 201.082 52.177 196.422 47.847 188.054L29.947 153.47L8.64702 112.307C7.43378 109.997 6.60909 107.502 6.20601 104.924C5.79403 102.566 5.80182 100.154 6.22902 97.799C6.72539 94.6865 8.2053 91.8146 10.452 89.604C9.34682 89.8058 8.27822 90.1726 7.28201 90.692C3.53201 92.633 1.14402 96.383 0.321016 100.856" fill="#FA9E4A"/>
<path d="M13.2701 109.625L27.5961 104.767C27.8051 104.706 27.9966 104.596 28.1543 104.446C28.312 104.296 28.4314 104.111 28.5024 103.905C28.5735 103.699 28.5941 103.479 28.5625 103.264C28.531 103.048 28.4482 102.844 28.3211 102.667C28.0304 102.25 27.6154 101.935 27.1351 101.767C26.6457 101.595 26.1143 101.584 25.6181 101.735L11.2921 106.593C11.0792 106.648 10.8833 106.755 10.7219 106.905C10.5604 107.054 10.4384 107.241 10.3667 107.449C10.2951 107.657 10.2759 107.879 10.3111 108.096C10.3462 108.313 10.4345 108.518 10.5681 108.693C10.7818 109.008 11.0673 109.267 11.4011 109.45C11.5146 109.508 11.6326 109.556 11.7541 109.594C12.243 109.766 12.7743 109.778 13.2701 109.626" fill="#FA9E4A"/>
<path d="M24.803 131.779L39.129 126.921C39.338 126.86 39.5295 126.75 39.6872 126.6C39.8449 126.45 39.9643 126.265 40.0353 126.059C40.1064 125.853 40.127 125.633 40.0954 125.418C40.0639 125.202 39.9811 124.998 39.854 124.821C39.5598 124.401 39.1403 124.084 38.6554 123.916C38.1705 123.748 37.645 123.738 37.154 123.887L22.828 128.743C22.6153 128.798 22.4196 128.906 22.2583 129.055C22.097 129.204 21.9751 129.391 21.9034 129.599C21.8318 129.807 21.8126 130.029 21.8476 130.246C21.8826 130.463 21.9707 130.668 22.104 130.843C22.3171 131.158 22.6027 131.418 22.937 131.6C23.051 131.657 23.1689 131.705 23.29 131.744C23.7789 131.916 24.3102 131.928 24.806 131.776" fill="#FA9E4A"/>
<path d="M37.886 160.306L52.212 155.448C52.421 155.387 52.6125 155.277 52.7702 155.127C52.9279 154.977 53.0473 154.792 53.1183 154.586C53.1894 154.38 53.21 154.16 53.1784 153.945C53.1469 153.729 53.0641 153.525 52.937 153.348C52.6429 152.928 52.2234 152.611 51.7385 152.443C51.2536 152.275 50.728 152.265 50.237 152.414L35.911 157.272C35.6981 157.327 35.5022 157.434 35.3408 157.584C35.1793 157.733 35.0573 157.92 34.9856 158.128C34.914 158.336 34.8948 158.558 34.93 158.775C34.9651 158.992 35.0534 159.197 35.187 159.372C35.4007 159.687 35.6862 159.946 36.02 160.129C36.5998 160.417 37.2655 160.48 37.889 160.306" fill="#FA9E4A"/>
<path d="M49.4191 182.465L63.7451 177.607C63.9541 177.546 64.1455 177.436 64.3032 177.286C64.461 177.136 64.5804 176.951 64.6514 176.745C64.7224 176.539 64.743 176.319 64.7115 176.104C64.6799 175.888 64.5971 175.684 64.4701 175.507C64.176 175.086 63.7565 174.77 63.2716 174.602C62.7866 174.434 62.2611 174.424 61.7701 174.573L47.4401 179.431C47.2273 179.486 47.0316 179.594 46.8703 179.743C46.709 179.892 46.5871 180.079 46.5155 180.287C46.4438 180.495 46.4246 180.717 46.4596 180.934C46.4946 181.151 46.5827 181.356 46.7161 181.531C46.9301 181.846 47.2155 182.105 47.5491 182.288C47.663 182.345 47.781 182.393 47.9021 182.432C48.391 182.604 48.9231 182.616 49.4191 182.465Z" fill="#FA9E4A"/>
<path d="M32.439 138.987C32.071 140.119 32.833 141.287 33.611 142.187C38.5426 147.865 45.4691 151.429 52.956 152.14C53.122 151.912 53.287 151.683 53.456 151.455C53.4227 151.159 53.3933 150.864 53.368 150.57C51.62 147.057 49.254 143.886 46.383 141.211C44.9192 139.856 43.2003 138.806 41.3265 138.122C39.4528 137.438 37.4616 137.134 35.469 137.227C34.233 137.333 32.823 137.81 32.434 138.987" fill="#339DD5"/>
<path d="M36.196 121.935C35.99 122.387 35.9238 122.889 36.006 123.379C36.475 128.726 40.152 133.279 44.311 136.672C46.7899 138.701 49.4868 140.449 52.352 141.882C52.87 139.39 52.007 136.801 50.887 134.511C48.4064 129.462 44.632 125.161 39.948 122.045C39.3831 121.62 38.7318 121.323 38.04 121.177C37.6923 121.112 37.3331 121.149 37.0059 121.283C36.6787 121.418 36.3974 121.644 36.196 121.935Z" fill="#4A4B4D"/>
<path d="M38.001 110.646C38.0292 112.311 38.5312 113.933 39.448 115.323C42.6018 120.706 47.6719 124.7 53.644 126.505C52.4595 121.737 50.2422 117.287 47.149 113.47C45.5244 111.249 43.3156 109.521 40.768 108.48C40.3991 108.33 39.9996 108.27 39.603 108.306C38.592 108.453 38.054 109.617 38.003 110.643" fill="#4A4B4D"/>
<path d="M53.787 115.171C53.8236 115.17 53.8601 115.167 53.896 115.16C53.8984 115.082 53.8961 115.004 53.889 114.927H53.817C52.7919 109.306 49.7299 104.26 45.217 100.756C44.8396 100.457 44.436 100.193 44.011 99.966C43.6688 99.761 43.289 99.6266 42.894 99.5706C42.499 99.5146 42.0968 99.5382 41.711 99.6399C41.5309 101.956 42.0848 104.27 43.294 106.254C44.5017 108.222 45.9591 110.026 47.63 111.62C49.283 113.293 51.162 114.995 53.49 115.297C53.5462 115.302 53.6026 115.292 53.6541 115.27C53.7057 115.247 53.7507 115.212 53.785 115.167" fill="#4A4B4D"/>
<path d="M43.215 95.087C42.9877 95.2386 42.8159 95.4603 42.7256 95.7183C42.6354 95.9763 42.6317 96.2567 42.715 96.517C43.0664 97.6916 43.8349 98.6974 44.876 99.345C46.4998 100.545 48.3392 101.422 50.294 101.927C50.9159 102.131 51.5813 102.163 52.22 102.021L52.429 102.01C52.354 101.678 52.276 101.344 52.197 101.01C50.1552 98.3898 47.4368 96.3768 44.335 95.188C43.9885 95.0076 43.5852 94.9696 43.211 95.082" fill="#4A4B4D"/>
<path d="M50.5 95.581C50.549 95.712 50.6 95.843 50.649 95.975C50.7925 93.7165 50.5099 91.4511 49.816 89.297C49.0599 86.9591 47.6087 84.9075 45.656 83.416C45.069 82.982 44.206 82.625 43.656 83.111C43.4707 83.3466 43.3504 83.6265 43.3069 83.923C43.2634 84.2195 43.2982 84.5222 43.408 84.801C44.3934 89.1032 46.83 92.9349 50.308 95.652L50.5 95.581Z" fill="#4A4B4D"/>
<path d="M53.4611 151.454C53.5191 152.015 53.5801 152.571 53.6611 153.126C57.9329 153.108 62.1364 152.053 65.9101 150.051C67.0662 149.551 68.1311 148.862 69.0611 148.012C69.5238 147.584 69.8927 147.064 70.1445 146.486C70.3963 145.908 70.5255 145.284 70.5241 144.653C70.5102 144.157 70.349 143.676 70.0611 143.272C69.663 142.876 69.1738 142.585 68.6365 142.423C68.0992 142.261 67.5303 142.234 66.9801 142.344C64.0278 142.674 61.2315 143.842 58.9211 145.709C56.8484 147.367 55.0115 149.3 53.4611 151.454Z" fill="#339DD5"/>
<path d="M53.053 140.918C53.053 141.368 53.042 141.818 53.046 142.267C53.3257 142.334 53.6186 142.319 53.89 142.224C57.8092 141.227 61.5763 139.707 65.09 137.705C66.9007 136.756 68.5265 135.49 69.89 133.967C70.5695 133.202 71.0899 132.31 71.4211 131.342C71.7523 130.375 71.8876 129.351 71.819 128.33C71.7901 127.807 71.5993 127.305 71.273 126.895C70.9278 126.555 70.4854 126.331 70.007 126.253C68.045 125.827 66.034 126.685 64.349 127.765C59.44 130.916 56.121 135.931 53.049 140.918" fill="#4A4B4D"/>
<path d="M53.666 126.612C53.655 126.866 53.644 127.119 53.629 127.369L54.017 127.387C57.0155 126.654 59.8827 125.462 62.517 123.853C65.517 122.027 68.349 119.393 68.972 115.94C69.0856 115.533 69.1035 115.106 69.0242 114.691C68.9449 114.277 68.7706 113.886 68.515 113.55C67.723 112.721 66.344 112.95 65.281 113.394C62.6549 114.578 60.3697 116.406 58.637 118.707C56.9168 121.005 55.3924 123.443 54.08 125.996L53.701 125.978C53.691 126.16 53.682 126.342 53.671 126.519C53.6737 126.552 53.6737 126.586 53.671 126.619" fill="#4A4B4D"/>
<path d="M53.22 101.899C53.203 102.043 53.182 102.183 53.166 102.327C55.1963 101.775 57.1124 100.867 58.825 99.645C59.6763 99.0277 60.375 98.2239 60.8678 97.2951C61.3605 96.3662 61.6343 95.3369 61.668 94.286C61.657 93.78 61.503 93.195 61.031 93.018C60.8156 92.9559 60.5877 92.9515 60.37 93.005C58.7328 93.4583 57.2579 94.3672 56.117 95.626C54.47 97.157 52.779 98.959 52.607 101.205L52.441 101.324C52.565 101.498 52.687 101.674 52.811 101.849L53.22 101.899Z" fill="#4A4B4D"/>
<path d="M58.375 105.99C56.4133 108.763 54.9613 111.863 54.087 115.145C56.6671 114.859 59.0812 113.731 60.957 111.937C62.974 109.965 64.5518 107.588 65.587 104.964C66.0663 104.104 66.1959 103.093 65.949 102.14C65.8581 101.873 65.6825 101.644 65.449 101.486C65.0466 101.29 64.5831 101.26 64.159 101.404C61.713 101.982 59.828 103.933 58.375 105.99Z" fill="#4A4B4D"/>
<path d="M53.827 127.26C54.34 116.326 53.871 105.243 49.853 94.934C49.629 94.363 50.541 94.077 50.764 94.648C54.7 104.748 55.273 115.604 54.821 126.329C54.334 137.85 53.177 149.358 52.28 160.853C52.233 161.453 51.28 161.509 51.327 160.896C52.201 149.696 53.301 138.483 53.827 127.26Z" fill="#4A4B4D"/>
<path d="M103.178 138.192C102.925 139.17 102.48 140.087 101.87 140.892C100.773 142.218 99.532 143.417 98.17 144.469C96.606 145.804 95.034 147.132 93.46 148.469C91.99 149.712 90.455 150.912 89.06 152.238C87.87 153.37 86.709 154.98 87.283 156.688C87.812 158.234 89.598 158.576 91.083 158.488C92.891 158.38 94.598 157.647 96.425 157.757C97.1416 157.826 97.8365 158.041 98.4663 158.389C99.0962 158.738 99.6475 159.213 100.086 159.783C100.525 160.354 100.841 161.009 101.016 161.708C101.19 162.406 101.219 163.133 101.101 163.843C100.684 167.063 98.001 169.643 95.401 171.443C92.5749 173.25 89.5414 174.71 86.366 175.792C80.478 178.027 73.724 180.341 70.545 186.028C70.289 186.478 69.545 186.111 69.8 185.652C69.843 185.574 69.9 185.503 69.941 185.425C67.1824 183.211 64.5433 180.853 62.035 178.359C59.4557 175.797 57.0216 173.093 54.744 170.259C53.591 168.835 52.472 167.38 51.423 165.879C50.3893 164.523 49.5939 163.002 49.071 161.379C48.344 158.802 49.071 155.593 51.732 154.341C54.148 153.199 56.242 154.579 58.107 156.071C58.715 156.563 59.297 157.071 59.856 157.494C61.122 158.453 62.966 159.485 64.595 158.862C65.2479 158.544 65.7745 158.015 66.0897 157.361C66.4049 156.707 66.4903 155.966 66.332 155.257C65.9489 153.658 65.1251 152.198 63.954 151.043C62.7947 149.711 61.7256 148.303 60.754 146.828C58.8308 143.907 57.4686 140.654 56.737 137.234C56.5275 136.437 56.4838 135.606 56.6087 134.792C56.7336 133.978 57.0244 133.198 57.463 132.501C57.8636 131.919 58.421 131.462 59.0706 131.185C59.7203 130.907 60.4354 130.819 61.133 130.931C64.359 131.431 66.06 135.231 69.46 135.221C71.299 135.21 71.85 133.504 71.471 132.005C70.9676 130.386 70.0569 128.923 68.826 127.757C66.566 125.394 63.706 123.457 62.21 120.506C61.4882 119.213 61.2527 117.704 61.546 116.252C61.8532 114.983 62.5903 113.86 63.632 113.073C64.152 112.68 64.7603 112.419 65.404 112.315C66.0477 112.21 66.7071 112.264 67.325 112.473C68.889 113.018 69.901 114.373 71.368 115.066C72.0471 115.438 72.8418 115.54 73.593 115.352C73.951 115.222 74.2489 114.965 74.4299 114.63C74.6109 114.295 74.6626 113.905 74.575 113.534C74.294 111.862 72.812 110.505 71.755 109.234C69.3379 106.327 67.1415 103.243 65.184 100.008C64.1779 98.5915 63.5846 96.9236 63.47 95.19C63.4773 94.5058 63.6511 93.8337 63.9764 93.2317C64.3017 92.6297 64.7687 92.116 65.337 91.735C65.9085 91.4008 66.5613 91.2313 67.2231 91.2453C67.885 91.2592 68.5301 91.456 69.087 91.814C70.063 92.336 71.43 93.607 72.632 93.214C74.26 92.671 73.758 90.175 73.532 88.972C73.187 87.128 72.582 85.337 72.222 83.492C71.676 80.768 71.811 77.692 73.722 75.481C74.6761 74.4695 75.9682 73.8432 77.3533 73.7208C78.7384 73.5984 80.1203 73.9884 81.237 74.817C84.073 76.685 84.998 79.947 85.105 83.074C85.174 84.852 84.898 86.642 85.017 88.412C85.124 89.998 85.802 91.88 87.543 92.423C88.832 92.835 90.121 92.078 91.171 91.457C92.1211 90.7579 93.1986 90.2511 94.343 89.965C94.9037 89.8804 95.4769 89.9702 95.9849 90.2222C96.4929 90.4743 96.9111 90.8763 97.183 91.374C97.7313 92.6617 97.8106 94.1009 97.407 95.441C96.7276 98.7671 95.2344 101.873 93.061 104.481C92.071 105.681 90.493 106.876 90.331 108.507C90.2654 108.825 90.2857 109.156 90.3896 109.464C90.4935 109.772 90.6774 110.047 90.9225 110.26C91.1676 110.474 91.465 110.618 91.7843 110.679C92.1037 110.74 92.4335 110.715 92.74 110.607C94.74 110.007 97.307 107.587 99.24 109.816C99.9342 110.763 100.225 111.946 100.048 113.107C99.8472 114.565 99.4173 115.983 98.774 117.307C97.3854 120.566 95.507 123.593 93.204 126.284C92.0429 127.41 91.1697 128.799 90.658 130.333C90.283 132.062 91.671 133.164 93.377 133.141C95.106 133.127 96.657 132.283 98.35 132.074C99.0566 131.961 99.7804 132.027 100.455 132.268C101.129 132.508 101.731 132.914 102.207 133.449C102.75 134.096 103.123 134.869 103.293 135.697C103.462 136.524 103.422 137.382 103.176 138.19" fill="#7C7D7E"/>
<path d="M82.523 104.926C81.9418 97.8935 80.6847 90.9334 78.769 84.142C78.525 83.2873 78.269 82.435 78.001 81.585C77.962 81.4872 77.8874 81.4077 77.7922 81.3626C77.697 81.3176 77.5883 81.3102 77.4879 81.342C77.3874 81.3737 77.3028 81.4423 77.2509 81.534C77.199 81.6256 77.1836 81.7335 77.208 81.836C79.3139 88.6077 80.7393 95.5724 81.463 102.627C82.1778 109.643 82.3429 116.705 81.957 123.747C81.5587 130.937 80.7319 138.097 79.481 145.188C78.238 152.399 76.643 159.547 74.865 166.647C73.078 173.791 71.104 180.887 69.109 187.978C68.859 188.867 68.6087 189.757 68.358 190.648C68.217 191.148 69.038 191.324 69.179 190.825C71.185 183.703 73.192 176.577 75.031 169.41C76.877 162.217 78.557 154.978 79.892 147.673C81.2125 140.593 82.1307 133.444 82.642 126.26C83.1481 119.155 83.1084 112.022 82.523 104.924" fill="#B6B7B7"/>
<path d="M89.85 164.371L71.911 179.546C68.2865 172.875 64.0378 166.563 59.222 160.694C58.888 160.286 58.187 160.722 58.522 161.134C63.4407 167.124 67.7676 173.577 71.442 180.402C71.4793 180.453 71.5272 180.496 71.5824 180.527C71.6376 180.558 71.6989 180.576 71.7621 180.581C71.8252 180.586 71.8886 180.577 71.948 180.555C72.0074 180.533 72.0613 180.499 72.106 180.454L90.476 164.915C90.876 164.574 90.248 164.035 89.849 164.372" fill="#B6B7B7"/>
<path d="M93.3118 139.808L78.0408 154.508C74.8147 148.947 70.9823 143.761 66.6138 139.044C66.2528 138.653 65.6998 139.254 66.0588 139.644C70.4915 144.438 74.3647 149.721 77.6038 155.39C77.6406 155.441 77.6882 155.484 77.7433 155.515C77.7984 155.546 77.8596 155.565 77.9227 155.57C77.9858 155.575 78.0491 155.566 78.1084 155.544C78.1677 155.522 78.2214 155.487 78.2658 155.442C83.4911 150.413 88.7158 145.383 93.9398 140.352C94.3198 139.985 93.6898 139.444 93.3128 139.809" fill="#B6B7B7"/>
<path d="M89.945 119.686C87.5696 124.151 84.77 128.376 81.585 132.304C78.9391 127.913 75.754 123.871 72.104 120.272C71.724 119.896 71.17 120.496 71.549 120.872C75.2882 124.563 78.5314 128.724 81.197 133.252C81.2337 133.304 81.2813 133.347 81.3364 133.378C81.3915 133.409 81.4527 133.428 81.5158 133.433C81.579 133.438 81.6424 133.429 81.7017 133.406C81.761 133.384 81.8147 133.349 81.859 133.304C85.2373 129.195 88.197 124.76 90.694 120.063C90.938 119.603 90.194 119.229 89.945 119.689" fill="#B6B7B7"/>
<path d="M88.611 100.445C86.368 103.343 84.3186 106.386 82.476 109.554L74.176 99.7621C73.837 99.3621 73.135 99.7961 73.476 100.201L82.192 110.481C82.2344 110.539 82.2905 110.585 82.3553 110.616C82.42 110.647 82.4914 110.662 82.5631 110.658C82.6348 110.655 82.7045 110.634 82.7661 110.597C82.8276 110.56 82.8791 110.509 82.916 110.447C84.8011 107.151 86.9139 103.99 89.239 100.988C89.559 100.577 88.931 100.031 88.611 100.445Z" fill="#B6B7B7"/>
<path d="M128.879 114.963C131.174 129.322 128.76 146.957 121.771 159.719C114.12 173.685 101.081 182.188 86.101 187.564C83.9824 188.352 81.7958 188.943 79.569 189.331C78.7967 187.157 78.2276 184.916 77.869 182.637C76.1039 172.134 77.1586 161.351 80.9252 151.389C84.6919 141.428 91.0355 132.644 99.308 125.937C107.656 119.178 118.164 114.646 128.878 114.967" fill="#4A4B4D"/>
<path d="M124.888 118.322C119.692 123.551 114.799 129.073 110.232 134.86C110.112 134.386 110.081 133.854 110 133.407C109.751 132.015 109.502 130.623 109.252 129.231C109.096 128.363 107.723 128.486 107.879 129.358L108.73 134.103C108.792 134.785 108.966 135.452 109.246 136.077C107.555 138.25 105.908 140.459 104.307 142.702C102.457 145.302 100.698 147.962 98.982 150.65L96.652 140.337C96.458 139.482 95.085 139.601 95.279 140.464L97.951 152.291C94.763 157.391 91.783 162.628 89.072 167.999C88.2054 163.661 87.3387 159.322 86.472 154.982C86.3 154.12 84.926 154.24 85.099 155.111C86.0557 159.9 87.012 164.69 87.968 169.479C87.9974 169.604 88.0522 169.721 88.129 169.824C88.098 169.888 88.063 169.95 88.029 170.014C85.3884 175.404 83.0027 180.908 80.872 186.527C80.558 187.354 81.813 187.927 82.129 187.094C84.349 181.242 86.887 175.517 89.662 169.908L104.77 166.808C105.631 166.631 105.51 165.257 104.643 165.435L90.443 168.344C92.119 165.033 93.854 161.753 95.718 158.544C96.731 156.8 97.798 155.087 98.865 153.375L114.301 151.789C114.478 151.765 114.638 151.674 114.749 151.535C114.86 151.396 114.913 151.219 114.897 151.042C114.88 150.864 114.796 150.7 114.661 150.583C114.526 150.467 114.352 150.407 114.174 150.416L99.766 151.897C103.037 146.756 106.546 141.776 110.293 136.959C110.457 137.023 110.627 137.069 110.801 137.097C111.429 137.157 112.063 137.141 112.687 137.049L115.262 136.813L120.212 136.359C120.389 136.335 120.549 136.244 120.66 136.105C120.771 135.966 120.824 135.789 120.808 135.611C120.791 135.434 120.707 135.27 120.572 135.153C120.438 135.037 120.263 134.977 120.085 134.986L115.729 135.386C114.341 135.513 112.943 135.705 111.551 135.76C111.451 135.76 111.351 135.76 111.251 135.76C112.142 134.632 113.031 133.503 113.951 132.395C117.746 127.808 121.747 123.404 125.956 119.183C126.581 118.556 125.505 117.691 124.884 118.316" fill="#84878E"/>
<path d="M64.039 147.838C65.8704 151.896 66.4574 156.405 65.7257 160.797C64.9941 165.188 62.9767 169.264 59.9286 172.509C56.8805 175.754 52.9387 178.022 48.6016 179.026C44.2645 180.031 39.727 179.726 35.5627 178.152C31.3985 176.578 27.7947 173.804 25.2069 170.181C22.6192 166.559 21.1638 162.25 21.0248 157.8C20.8858 153.351 22.0694 148.96 24.4259 145.183C26.7825 141.406 30.2062 138.412 34.264 136.581C39.7052 134.126 45.8989 133.932 51.4827 136.043C57.0665 138.154 61.5831 142.397 64.039 147.838Z" fill="#FFA9A9"/>
<path d="M10.185 137.937C10.8952 139.443 12.0202 140.716 13.428 141.605C18.5167 145.216 24.7814 146.771 30.968 145.96C27.9267 142.101 24.075 138.957 19.685 136.75C17.2906 135.394 14.567 134.729 11.817 134.828C11.4189 134.842 11.0299 134.952 10.683 135.148C9.82205 135.697 9.81005 136.981 10.183 137.937" fill="#4A4B4D"/>
<path d="M31.4241 128.446C30.4983 129.371 29.8549 130.54 29.5691 131.817C28.2446 136.539 28.7525 141.587 30.9911 145.951C33.0433 142.679 34.3518 138.996 34.8241 135.162C35.1931 133.031 34.9643 130.84 34.1631 128.831C34.0469 128.54 33.8628 128.281 33.6261 128.076C33.2701 127.886 32.861 127.819 32.4629 127.885C32.0648 127.952 31.7001 128.15 31.4261 128.446" fill="#4A4B4D"/>
<path d="M119.397 294.809H37.233V168.284L43.218 175.466L49.202 168.284L55.202 175.466L61.187 168.284L67.187 175.466L73.171 168.284L79.155 175.466L85.155 168.284L91.139 175.466L97.123 168.284L103.123 175.466L109.108 168.284L119.397 294.809Z" fill="#FAC46D"/>
<path d="M37.2311 168.285V294.81H15.4871L22.3381 168.285L29.7851 175.467L37.2311 168.285Z" fill="#FA9E4A"/>
<path d="M50.953 141.994C49.097 141.994 49.359 144.868 51.204 144.868C53.049 144.868 52.804 141.994 50.953 141.994Z" fill="#F25C5C"/>
<path d="M56.7671 148.409C54.9111 148.409 55.1731 151.283 57.0181 151.283C58.8631 151.283 58.6121 148.409 56.7671 148.409Z" fill="#F25C5C"/>
<path d="M50.7521 149.412C48.8961 149.412 49.1581 152.286 51.0031 152.286C52.8481 152.286 52.5971 149.412 50.7521 149.412Z" fill="#F25C5C"/>
<path d="M54.872 19.786L52.5881 22.91L50.0451 21.052L52.3231 17.923L49.201 15.651L51.057 13.099L54.187 15.376L56.481 12.231L59.028 14.088L56.733 17.233L59.857 19.518L57.993 22.065L54.872 19.786Z" fill="#FC6011"/>
<path d="M74.528 29.469C74.342 28.2771 74.5136 27.0568 75.0211 25.9624C75.5285 24.868 76.3491 23.9487 77.379 23.3206C78.4089 22.6925 79.6019 22.3838 80.8072 22.4337C82.0124 22.4835 83.1759 22.8896 84.1504 23.6006C85.1249 24.3116 85.8667 25.2956 86.2821 26.4282C86.6974 27.5607 86.7677 28.791 86.4839 29.9635C86.2001 31.1359 85.5751 32.1979 84.6878 33.0152C83.8005 33.8325 82.6908 34.3683 81.499 34.555C79.9005 34.803 78.2688 34.4068 76.9619 33.4533C75.6551 32.4998 74.7798 31.067 74.528 29.469ZM79.965 24.746C79.2184 24.8635 78.5234 25.1997 77.9677 25.7121C77.4121 26.2245 77.0208 26.8901 76.8433 27.6248C76.6658 28.3595 76.7101 29.1303 76.9706 29.8398C77.231 30.5493 77.6959 31.1657 78.3065 31.6111C78.9172 32.0566 79.6461 32.311 80.4013 32.3422C81.1565 32.3735 81.904 32.1802 82.5493 31.7868C83.1947 31.3934 83.709 30.8175 84.0272 30.1319C84.3453 29.4463 84.4532 28.6818 84.337 27.935C84.2594 27.4385 84.0847 26.9622 83.823 26.5332C83.5613 26.1042 83.2176 25.731 82.8116 25.4349C82.4056 25.1387 81.9453 24.9255 81.4568 24.8073C80.9684 24.6891 80.4615 24.6683 79.965 24.746Z" fill="#FC6011"/>
<path d="M62.2497 41.7365L58.557 49.397L66.2183 53.0901L69.911 45.4296L62.2497 41.7365Z" fill="#FECFB7"/>
<path d="M42.625 33.073C43.6386 32.9147 44.6764 33.0604 45.6071 33.4918C46.5379 33.9233 47.3198 34.621 47.854 35.4968C48.3882 36.3726 48.6507 37.3871 48.6083 38.4121C48.566 39.4371 48.2206 40.4266 47.6159 41.2553C47.0112 42.084 46.1744 42.7148 45.2112 43.0679C44.248 43.421 43.2017 43.4806 42.2047 43.2391C41.2077 42.9976 40.3046 42.4659 39.6098 41.7111C38.9149 40.9564 38.4595 40.0126 38.301 38.9991C38.1958 38.326 38.2242 37.6389 38.3845 36.9768C38.5449 36.3147 38.8341 35.6908 39.2356 35.1405C39.6372 34.5902 40.1431 34.1244 40.7247 33.7696C41.3062 33.4149 41.952 33.1782 42.625 33.073Z" fill="#FECFB7"/>
<path d="M52.906 66.274C53.5987 66.1657 54.3079 66.2653 54.944 66.5601C55.5801 66.8549 56.1145 67.3317 56.4796 67.9302C56.8447 68.5287 57.0242 69.222 56.9953 69.9225C56.9664 70.623 56.7305 71.2992 56.3173 71.8656C55.9041 72.432 55.3323 72.8632 54.6741 73.1046C54.0159 73.3461 53.3009 73.3869 52.6195 73.222C51.9381 73.0571 51.3208 72.6938 50.8459 72.1782C50.3709 71.6625 50.0595 71.0176 49.951 70.325C49.806 69.396 50.0359 68.4474 50.59 67.6878C51.1441 66.9282 51.9771 66.4196 52.906 66.274Z" fill="#FC6011"/>
<path d="M191.556 252.314C191.556 260.552 189.113 268.605 184.537 275.454C179.96 282.304 173.455 287.642 165.844 290.795C158.233 293.947 149.859 294.772 141.779 293.165C133.7 291.558 126.278 287.591 120.453 281.766C114.628 275.941 110.661 268.519 109.054 260.44C107.447 252.36 108.272 243.986 111.425 236.375C114.577 228.764 119.916 222.259 126.765 217.683C133.614 213.106 141.667 210.663 149.905 210.663C155.375 210.663 160.791 211.74 165.844 213.833C170.898 215.926 175.489 218.994 179.357 222.862C183.225 226.73 186.293 231.321 188.386 236.375C190.479 241.428 191.556 246.844 191.556 252.314Z" fill="#F25C5C"/>
<path d="M187.608 252.314C187.608 260.552 185.165 268.605 180.589 275.454C176.012 282.304 169.507 287.642 161.896 290.795C154.285 293.947 145.911 294.772 137.831 293.165C129.752 291.558 122.33 287.591 116.505 281.766C110.68 275.941 106.713 268.519 105.106 260.44C103.499 252.36 104.324 243.986 107.477 236.375C110.629 228.764 115.968 222.259 122.817 217.683C129.666 213.106 137.719 210.663 145.957 210.663C151.427 210.663 156.843 211.74 161.896 213.833C166.95 215.926 171.541 218.994 175.409 222.862C179.277 226.73 182.345 231.321 184.438 236.375C186.531 241.428 187.608 246.844 187.608 252.314Z" fill="#FFA9A9"/>
<path d="M184.82 252.314C184.82 260.001 182.541 267.515 178.27 273.907C173.999 280.298 167.929 285.28 160.827 288.222C153.726 291.163 145.911 291.933 138.372 290.433C130.832 288.934 123.907 285.232 118.472 279.796C113.036 274.361 109.334 267.436 107.835 259.896C106.335 252.357 107.105 244.542 110.047 237.441C112.988 230.339 117.97 224.269 124.361 219.998C130.753 215.727 138.267 213.448 145.954 213.448C156.262 213.448 166.148 217.543 173.436 224.832C180.725 232.12 184.82 242.006 184.82 252.314Z" fill="white"/>
<path d="M163.741 265.647L140.047 256.94V220.57H141.881V255.661L164.373 263.923L163.741 265.647Z" fill="#3E394F"/>
<path d="M134.561 222.444L140.961 211.356L147.361 222.444H134.561Z" fill="#3E394F"/>
<path d="M160.087 270.149L172.703 267.964L164.503 258.13L160.087 270.149Z" fill="#3E394F"/>
<g style="mix-blend-mode:multiply">
<mask id="mask4_180_4815" style="mask-type:luminance" maskUnits="userSpaceOnUse" x="144" y="216" width="37" height="52">
<path d="M180.975 216.429H144.375V267.125H180.975V216.429Z" fill="white"/>
</mask>
<g mask="url(#mask4_180_4815)">
<path d="M144.375 216.429V254.144L179.629 267.125C179.629 267.125 191.555 221.015 144.375 216.425" fill="#FECFB7"/>
</g>
</g>
<path d="M144.167 256.523C144.167 257.156 143.979 257.775 143.628 258.301C143.276 258.827 142.776 259.237 142.192 259.479C141.607 259.722 140.963 259.785 140.343 259.661C139.722 259.538 139.152 259.233 138.704 258.786C138.257 258.338 137.952 257.768 137.828 257.147C137.705 256.527 137.768 255.883 138.011 255.298C138.253 254.714 138.663 254.214 139.189 253.862C139.715 253.511 140.334 253.323 140.967 253.323C141.816 253.323 142.63 253.66 143.23 254.26C143.83 254.86 144.167 255.674 144.167 256.523Z" fill="#3E394F"/>
<path d="M196.571 11.063L189.857 12.101L190.881 18.767L185.444 19.606L184.42 12.94L177.751 13.97L176.911 8.533L183.58 7.50301L182.546 0.840004L187.983 0L189.018 6.663L195.73 5.627L196.571 11.063ZM187.214 1.04501L183.587 1.605L184.622 8.26801L177.956 9.301L178.516 12.928L185.186 11.897L186.214 18.56L189.841 18L188.814 11.336L195.525 10.301L194.965 6.674L188.253 7.71L187.214 1.04501Z" fill="#FC6011"/>
<path d="M194.876 24.3549C195.758 23.1504 196.976 22.2342 198.379 21.7225C199.781 21.2107 201.303 21.1263 202.753 21.48C204.203 21.8336 205.516 22.6094 206.525 23.7092C207.534 24.809 208.194 26.1833 208.422 27.6584C208.65 29.1335 208.435 30.643 207.805 31.996C207.175 33.349 206.157 34.4847 204.881 35.2593C203.606 36.034 202.129 36.4129 200.638 36.348C199.146 36.2831 197.708 35.7775 196.504 34.8949C194.894 33.7107 193.819 31.9366 193.513 29.9612C193.208 27.9857 193.698 25.9698 194.876 24.3549ZM203.755 24.9959C203.001 24.4445 202.1 24.129 201.166 24.0894C200.233 24.0498 199.309 24.2879 198.51 24.7735C197.712 25.259 197.075 25.9704 196.681 26.8176C196.287 27.6648 196.153 28.6099 196.296 29.5333C196.438 30.4567 196.852 31.3171 197.483 32.0058C198.115 32.6944 198.937 33.1803 199.844 33.4021C200.752 33.6239 201.705 33.5717 202.583 33.252C203.461 32.9323 204.225 32.3595 204.777 31.6059C205.517 30.5935 205.825 29.3288 205.633 28.0896C205.442 26.8503 204.766 25.7377 203.755 24.9959Z" fill="#FC6011"/>
<path d="M176.446 26.408L176.239 33.813L183.644 34.0203L183.851 26.6153L176.446 26.408Z" fill="#FC6011"/>
<path d="M200.116 42.736C200.394 42.3563 200.779 42.0677 201.222 41.9067C201.664 41.7457 202.144 41.7195 202.602 41.8314C203.059 41.9433 203.473 42.1883 203.791 42.5354C204.109 42.8825 204.317 43.3162 204.389 43.7815C204.461 44.2469 204.393 44.7231 204.194 45.1499C203.995 45.5767 203.674 45.9349 203.272 46.1793C202.869 46.4237 202.403 46.5433 201.933 46.523C201.463 46.5026 201.009 46.3433 200.629 46.065C200.377 45.8803 200.163 45.6476 200.001 45.3802C199.838 45.1128 199.73 44.8161 199.682 44.5069C199.635 44.1977 199.648 43.8821 199.723 43.5783C199.797 43.2744 199.931 42.9882 200.116 42.736Z" fill="#FC6011"/>
</svg>
