<svg width="211" height="315" viewBox="0 0 211 315" fill="none" xmlns="http://www.w3.org/2000/svg">
<path d="M181.011 122.673C179.483 124.05 178.285 125.755 177.507 127.659C176.73 129.564 176.392 131.62 176.52 133.673L181.829 217.178C181.829 217.178 183.403 230.048 172.107 230.048C160.811 230.048 162.384 217.178 162.384 217.178L167.677 133.673C167.806 131.62 167.469 129.563 166.691 127.659C165.914 125.754 164.715 124.049 163.186 122.673L161.986 121.593C160.342 120.112 159.083 118.254 158.316 116.178C157.55 114.103 157.299 111.872 157.586 109.678L163.064 67.4389C163.114 67.0893 163.288 66.7694 163.554 66.5371C163.82 66.3048 164.161 66.1756 164.514 66.173C164.898 66.1711 165.267 66.3207 165.542 66.5893C165.816 66.8579 165.974 67.224 165.98 67.6079L166.649 107.374C166.656 107.787 166.824 108.18 167.118 108.47C167.413 108.76 167.809 108.922 168.222 108.922H168.958C169.376 108.922 169.776 108.756 170.071 108.461C170.367 108.166 170.533 107.765 170.533 107.348V67.7479C170.528 67.538 170.565 67.3291 170.641 67.1335C170.718 66.938 170.833 66.7598 170.98 66.6094C171.126 66.459 171.302 66.3395 171.495 66.2579C171.689 66.1763 171.896 66.1343 172.107 66.1343C172.317 66.1343 172.524 66.1763 172.718 66.2579C172.912 66.3395 173.087 66.459 173.233 66.6094C173.38 66.7598 173.495 66.938 173.572 67.1335C173.649 67.3291 173.685 67.538 173.68 67.7479V107.348C173.68 107.765 173.846 108.166 174.141 108.461C174.436 108.756 174.837 108.922 175.254 108.922H175.991C176.404 108.922 176.8 108.759 177.094 108.47C177.389 108.18 177.557 107.787 177.564 107.374L178.233 67.6079C178.237 67.2394 178.381 66.8861 178.636 66.6195C178.89 66.3529 179.236 66.1927 179.604 66.1712C179.972 66.1498 180.335 66.2687 180.618 66.504C180.902 66.7392 181.086 67.0734 181.133 67.4389L186.628 109.678C186.909 111.873 186.655 114.103 185.886 116.178C185.117 118.253 183.857 120.111 182.214 121.593L181.011 122.673Z" fill="#FC6011"/>
<path d="M154.78 34.71L156.862 36.796L155.162 38.496L153.075 36.415L150.999 38.496L149.299 36.796L151.381 34.71L149.281 32.61L150.981 30.91L153.081 33.01L155.168 30.928L156.868 32.628L154.78 34.71Z" fill="#FC6011"/>
<path d="M164.377 21.0609C163.457 21.0611 162.558 20.7886 161.794 20.2778C161.029 19.767 160.433 19.0409 160.081 18.1913C159.729 17.3417 159.637 16.4068 159.816 15.5048C159.996 14.6029 160.439 13.7744 161.089 13.1242C161.739 12.4741 162.568 12.0313 163.47 11.8521C164.372 11.6729 165.307 11.7652 166.156 12.1173C167.006 12.4695 167.732 13.0656 168.242 13.8304C168.753 14.5953 169.025 15.4943 169.025 16.4139C169.024 17.6462 168.534 18.8275 167.662 19.6988C166.791 20.57 165.609 21.0599 164.377 21.0609ZM161.464 16.4139C161.464 16.9898 161.636 17.5525 161.956 18.0311C162.276 18.5097 162.731 18.8826 163.263 19.1028C163.795 19.3229 164.38 19.3803 164.945 19.2678C165.51 19.1553 166.028 18.8779 166.435 18.4707C166.843 18.0635 167.12 17.5447 167.232 16.9799C167.344 16.4152 167.287 15.8298 167.066 15.2978C166.846 14.7658 166.473 14.3111 165.994 13.991C165.516 13.671 164.953 13.5001 164.377 13.4999C163.994 13.4999 163.616 13.5753 163.262 13.7218C162.909 13.8682 162.587 14.0829 162.317 14.3535C162.046 14.6241 161.832 14.9453 161.685 15.2989C161.539 15.6524 161.464 16.0313 161.464 16.4139Z" fill="#FC6011"/>
<path d="M175.842 26.412L172.162 31.7419L177.492 35.422L181.172 30.092L175.842 26.412Z" fill="#FECFB7"/>
<path d="M163.335 45.4889C163.335 44.7077 163.567 43.944 164.001 43.2944C164.435 42.6449 165.052 42.1386 165.773 41.8396C166.495 41.5407 167.289 41.4624 168.056 41.6148C168.822 41.7673 169.526 42.1435 170.078 42.6959C170.63 43.2483 171.007 43.9521 171.159 44.7183C171.311 45.4846 171.233 46.2788 170.934 47.0005C170.635 47.7223 170.129 48.3392 169.479 48.7732C168.83 49.2073 168.066 49.4389 167.285 49.4389C166.766 49.4389 166.253 49.3368 165.773 49.1383C165.294 48.9398 164.859 48.6488 164.492 48.282C164.125 47.9152 163.834 47.4798 163.636 47.0005C163.437 46.5213 163.335 46.0077 163.335 45.4889Z" fill="#FECFB7"/>
<path d="M189.526 41.659C189.526 41.125 189.684 40.603 189.981 40.1589C190.278 39.7149 190.699 39.3689 191.193 39.1645C191.686 38.9602 192.229 38.9067 192.753 39.0109C193.276 39.115 193.757 39.3722 194.135 39.7498C194.513 40.1274 194.77 40.6085 194.874 41.1322C194.978 41.656 194.925 42.1989 194.72 42.6922C194.516 43.1856 194.17 43.6073 193.726 43.904C193.282 44.2006 192.76 44.359 192.226 44.359C191.871 44.359 191.52 44.2891 191.193 44.1535C190.865 44.0178 190.567 43.8189 190.317 43.5682C190.066 43.3175 189.867 43.0198 189.731 42.6922C189.596 42.3647 189.526 42.0136 189.526 41.659Z" fill="#FC6011"/>
<path d="M13.7979 164.826C13.7979 164.316 13.949 163.818 14.2322 163.394C14.5153 162.971 14.9178 162.64 15.3887 162.445C15.8596 162.25 16.3777 162.199 16.8776 162.299C17.3775 162.398 17.8367 162.643 18.1971 163.004C18.5575 163.364 18.8029 163.823 18.9023 164.323C19.0018 164.823 18.9507 165.341 18.7557 165.812C18.5606 166.283 18.2304 166.686 17.8066 166.969C17.3828 167.252 16.8846 167.403 16.3749 167.403C15.6914 167.403 15.0359 167.132 14.5526 166.648C14.0693 166.165 13.7979 165.509 13.7979 164.826Z" fill="#FECFB7"/>
<path d="M13.6636 145.397L8.5791 148.906L12.0882 153.99L17.1727 150.481L13.6636 145.397Z" fill="#FC6011"/>
<path d="M0 163.718C0 163.164 0.164195 162.623 0.471863 162.162C0.779531 161.702 1.21688 161.343 1.72852 161.131C2.24015 160.919 2.80311 160.864 3.34625 160.972C3.8894 161.08 4.38832 161.346 4.77991 161.738C5.17149 162.13 5.43817 162.629 5.5462 163.172C5.65424 163.715 5.59877 164.278 5.38684 164.789C5.17492 165.301 4.81605 165.738 4.35559 166.046C3.89513 166.354 3.35378 166.518 2.79999 166.518C2.05779 166.517 1.34635 166.221 0.821533 165.696C0.296718 165.172 0.00132182 164.46 0 163.718Z" fill="#FC6011"/>
<path d="M186.748 131.39L190.885 235.329C190.948 236.906 191.908 238.15 193.029 238.106C193.978 238.068 194.765 237.106 194.92 235.796L200.837 186.106C201.224 182.863 200.037 179.588 197.931 178.054C196.937 177.205 196.151 176.138 195.635 174.937C195.118 173.736 194.885 172.432 194.953 171.126L195.337 131.47C195.371 127.97 193.286 125.08 190.799 125.179C188.428 125.273 186.615 128.054 186.748 131.39Z" fill="#FC6011"/>
<path d="M130.742 48.424H63.6349C60.1998 48.4369 56.9092 49.8076 54.4808 52.2371C52.0524 54.6666 50.6832 57.9579 50.6719 61.393V228.816C50.6814 232.251 52.0501 235.543 54.4791 237.972C56.908 240.401 60.1997 241.77 63.6349 241.78H130.742C134.178 241.772 137.471 240.403 139.902 237.974C142.332 235.545 143.701 232.252 143.711 228.816V61.393C143.699 57.9569 142.329 54.6649 139.9 52.2353C137.47 49.8056 134.178 48.4355 130.742 48.424ZM131 54.097C133.01 54.1033 134.935 54.905 136.356 56.3269C137.776 57.7487 138.576 59.6751 138.581 61.685V222.16C138.576 224.169 137.776 226.094 136.355 227.515C134.934 228.936 133.009 229.736 131 229.741H63.6808C61.6706 229.738 59.7434 228.938 58.3213 227.517C56.8992 226.097 56.0979 224.17 56.0928 222.16V61.684C56.0986 59.6733 56.8999 57.7466 58.3217 56.3248C59.7435 54.9031 61.6702 54.1018 63.6808 54.096L131 54.097Z" fill="#29293D"/>
<path d="M130.741 48.106H63.6349C60.1133 48.1113 56.7375 49.513 54.248 52.0039C51.7584 54.4947 50.3584 57.8713 50.355 61.393V228.816C50.3603 232.336 51.7611 235.711 54.2504 238.2C56.7398 240.69 60.1145 242.091 63.6349 242.096H130.741C134.261 242.091 137.636 240.69 140.125 238.2C142.615 235.711 144.016 232.336 144.021 228.816V61.393C144.018 57.8713 142.618 54.4947 140.128 52.0039C137.638 49.513 134.263 48.1113 130.741 48.106ZM143.394 228.816C143.389 232.169 142.054 235.384 139.682 237.755C137.31 240.125 134.094 241.459 130.741 241.462H63.6349C60.2822 241.458 57.0677 240.125 54.697 237.754C52.3262 235.383 50.9927 232.169 50.989 228.816V61.393C50.9924 58.0394 52.3256 54.8242 54.6963 52.4522C57.0669 50.0803 60.2814 48.7452 63.6349 48.74H130.741C134.095 48.745 137.311 50.0797 139.682 52.4515C142.054 54.8233 143.389 58.0387 143.394 61.393V228.816Z" fill="#CCCCCC"/>
<path d="M138.581 61.6849V222.161C138.576 224.17 137.775 226.095 136.355 227.516C134.934 228.937 133.009 229.737 131 229.742H63.6808C61.6709 229.737 59.7445 228.938 58.3226 227.517C56.9008 226.096 56.0991 224.171 56.0928 222.161V61.6849C56.0988 59.6743 56.9002 57.7478 58.322 56.3261C59.7437 54.9044 61.6702 54.103 63.6808 54.0969H131.001C133.011 54.1035 134.936 54.9053 136.357 56.3271C137.777 57.7489 138.577 59.6751 138.582 61.6849" fill="#FECFB7"/>
<path d="M90.1921 55.26C90.5821 55.2596 90.9635 55.3749 91.288 55.5912C91.6125 55.8075 91.8655 56.1152 92.0152 56.4753C92.1648 56.8354 92.2043 57.2318 92.1287 57.6144C92.0531 57.997 91.8657 58.3485 91.5903 58.6247C91.3149 58.9008 90.9638 59.089 90.5814 59.1656C90.199 59.2422 89.8025 59.2037 89.442 59.055C89.0815 58.9062 88.7732 58.6539 88.5561 58.33C88.339 58.006 88.2228 57.625 88.2222 57.235C88.2222 56.7121 88.4295 56.2105 88.7988 55.8402C89.1681 55.47 89.6692 55.2613 90.1921 55.26Z" fill="#3B414B"/>
<path d="M106.089 57.046C106.106 57.3989 106.017 57.7489 105.834 58.0508C105.65 58.3527 105.38 58.5927 105.059 58.7397C104.737 58.8867 104.379 58.9341 104.031 58.8756C103.682 58.8172 103.359 58.6556 103.103 58.4119C102.848 58.1681 102.671 57.8532 102.596 57.5079C102.52 57.1626 102.55 56.8027 102.682 56.4747C102.813 56.1466 103.04 55.8655 103.333 55.6675C103.625 55.4695 103.971 55.3638 104.324 55.364C104.781 55.3537 105.223 55.525 105.554 55.8403C105.885 56.1556 106.077 56.5891 106.089 57.046Z" fill="#515760"/>
<path d="M100.259 56.2419V57.2419C100.259 57.3706 100.234 57.498 100.185 57.6169C100.136 57.7358 100.064 57.8438 99.9731 57.9347C99.8821 58.0256 99.7741 58.0976 99.6552 58.1466C99.5362 58.1955 99.4087 58.2205 99.2801 58.2199H95.4121C95.1526 58.2199 94.9038 58.1169 94.7202 57.9335C94.5366 57.7502 94.4334 57.5014 94.4331 57.2419V56.2419C94.4347 55.9828 94.5383 55.7347 94.7216 55.5514C94.9048 55.3682 95.1529 55.2645 95.4121 55.2629H99.2801C99.5397 55.2632 99.7885 55.3664 99.972 55.55C100.156 55.7335 100.259 55.9824 100.259 56.2419Z" fill="#1A1F29"/>
<path d="M92.1679 57.2379C92.1685 56.8477 92.0533 56.4661 91.837 56.1413C91.6207 55.8165 91.313 55.5632 90.9527 55.4133C90.5924 55.2634 90.1958 55.2237 89.8129 55.2993C89.4301 55.3748 89.0782 55.5622 88.8019 55.8377C88.5255 56.1132 88.3371 56.4645 88.2604 56.8471C88.1837 57.2297 88.2222 57.6265 88.371 57.9872C88.5198 58.348 88.7721 58.6565 89.0963 58.8738C89.4204 59.0911 89.8017 59.2074 90.1919 59.2079C90.7149 59.2079 91.2166 59.0006 91.587 58.6313C91.9574 58.262 92.1663 57.761 92.1679 57.2379ZM99.2799 55.2619H95.4119C95.1527 55.2633 94.9044 55.3668 94.7211 55.5501C94.5378 55.7335 94.4342 55.9817 94.4329 56.241V57.241C94.4332 57.5004 94.5364 57.7492 94.72 57.9326C94.9035 58.1159 95.1525 58.2189 95.4119 58.2189H99.2799C99.4085 58.2195 99.536 58.1945 99.655 58.1456C99.7739 58.0966 99.882 58.0246 99.973 57.9337C100.064 57.8428 100.136 57.7348 100.185 57.6159C100.234 57.497 100.259 57.3696 100.259 57.241V56.241C100.259 55.9814 100.155 55.7325 99.9719 55.549C99.7883 55.3654 99.5395 55.2622 99.2799 55.2619ZM82.5039 54.101H112.295C112.295 54.101 109.088 54.6569 109.063 57.6669C109.038 60.6769 106.507 61.1829 104.242 61.1829H90.5569C88.2909 61.1829 85.7659 60.6719 85.7339 57.6669C85.7019 54.6619 82.5039 54.101 82.5039 54.101ZM104.322 55.3699C103.994 55.387 103.677 55.4999 103.413 55.6947C103.148 55.8895 102.946 56.1577 102.832 56.4661C102.718 56.7745 102.697 57.1095 102.772 57.4297C102.846 57.7499 103.013 58.0412 103.251 58.2676C103.49 58.494 103.789 58.6455 104.113 58.7034C104.436 58.7613 104.77 58.723 105.072 58.5934C105.374 58.4637 105.632 58.2482 105.812 57.9737C105.993 57.6992 106.09 57.3777 106.09 57.049C106.078 56.592 105.885 56.1586 105.553 55.8439C105.222 55.5291 104.779 55.3587 104.322 55.3699Z" fill="#3E394F"/>
<path d="M140.464 60.999V222.16H138.581V61.684C138.577 59.6741 137.777 57.7477 136.356 56.3259C134.936 54.904 133.01 54.1023 131 54.096H63.6812C61.6704 54.1018 59.7437 54.903 58.3218 56.3248C56.8998 57.7465 56.0983 59.6732 56.0922 61.684V222.16H54.3232V60.999C54.3319 58.3115 55.4034 55.7367 57.3036 53.8364C59.2039 51.9361 61.7788 50.8647 64.4662 50.856H130.323C133.011 50.8623 135.588 51.933 137.488 53.8338C139.389 55.7346 140.46 58.3108 140.466 60.999" fill="#3E394F"/>
<path d="M140.464 222.16V229.192C140.457 231.879 139.386 234.454 137.486 236.355C135.585 238.255 133.011 239.326 130.323 239.334H64.4692C61.7819 239.325 59.2072 238.253 57.3065 236.354C55.4059 234.454 54.3335 231.879 54.3232 229.192V222.16H56.0892C56.0958 224.17 56.8977 226.096 58.3198 227.516C59.7418 228.937 61.6683 229.737 63.6782 229.741H130.997C133.006 229.736 134.932 228.936 136.352 227.515C137.773 226.094 138.573 224.169 138.578 222.16H140.464Z" fill="#3E394F"/>
<path d="M129.761 274.052C129.761 274.052 103.837 212.233 142.089 177.243C142.089 177.243 131.936 118.687 142.089 110.529C152.242 102.371 159.129 131.739 175.446 224.74L210.568 272.601L210.613 314.262H147.472L129.761 274.052Z" fill="#FFA9A9"/>
<path d="M50.4481 165.823H41.2061C39.018 165.823 36.9196 164.954 35.3724 163.407C33.8253 161.859 32.9561 159.761 32.9561 157.573C32.9561 155.385 33.8253 153.287 35.3724 151.739C36.9196 150.192 39.018 149.323 41.2061 149.323H50.452C52.6401 149.323 54.7385 150.192 56.2857 151.739C57.8329 153.287 58.702 155.385 58.702 157.573C58.702 159.761 57.8329 161.859 56.2857 163.407C54.7385 164.954 52.6401 165.823 50.452 165.823" fill="#FFA9A9"/>
<path d="M48.6799 185.13H39.8869C37.3266 185.13 34.8712 184.113 33.0609 182.303C31.2505 180.492 30.2334 178.037 30.2334 175.476C30.2334 172.916 31.2505 170.461 33.0609 168.65C34.8712 166.84 37.3266 165.823 39.8869 165.823H48.6799C51.2402 165.823 53.6956 166.84 55.506 168.65C57.3164 170.461 58.3334 172.916 58.3334 175.476C58.3334 178.037 57.3164 180.492 55.506 182.303C53.6956 184.113 51.2402 185.13 48.6799 185.13Z" fill="#FFA9A9"/>
<path d="M49.043 204.438H40.2499C37.6895 204.438 35.234 203.421 33.4235 201.61C31.613 199.8 30.5959 197.344 30.5959 194.784C30.5959 192.224 31.613 189.768 33.4235 187.958C35.234 186.147 37.6895 185.13 40.2499 185.13H49.043C51.6034 185.13 54.0589 186.147 55.8694 187.958C57.6799 189.768 58.697 192.224 58.697 194.784C58.697 197.344 57.6799 199.8 55.8694 201.61C54.0589 203.421 51.6034 204.438 49.043 204.438Z" fill="#FFA9A9"/>
<path d="M50.8549 220.934H41.6099C39.4218 220.934 37.3234 220.065 35.7762 218.518C34.2291 216.97 33.3599 214.872 33.3599 212.684C33.3599 210.496 34.2291 208.398 35.7762 206.85C37.3234 205.303 39.4218 204.434 41.6099 204.434H50.8549C53.0429 204.434 55.1414 205.303 56.6885 206.85C58.2357 208.398 59.1049 210.496 59.1049 212.684C59.1049 214.872 58.2357 216.97 56.6885 218.518C55.1414 220.065 53.0429 220.934 50.8549 220.934Z" fill="#FFA9A9"/>
<g style="mix-blend-mode:multiply">
<mask id="mask0_180_5077" style="mask-type:luminance" maskUnits="userSpaceOnUse" x="39" y="71" width="40" height="39">
<path d="M78.288 71.4509H39.979V109.76H78.288V71.4509Z" fill="white"/>
</mask>
<g mask="url(#mask0_180_5077)">
<path d="M70.928 109.76H47.3361C45.3861 109.754 43.5177 108.977 42.1389 107.598C40.76 106.219 39.9829 104.351 39.9771 102.401V78.8109C39.9829 76.8609 40.76 74.9924 42.1388 73.6134C43.5176 72.2344 45.386 71.457 47.3361 71.4509H70.9271C72.8772 71.4567 74.7457 72.2341 76.1246 73.6131C77.5034 74.9921 78.2805 76.8608 78.2861 78.8109V102.401C78.2805 104.351 77.5034 106.22 76.1245 107.598C74.7456 108.977 72.8781 109.754 70.928 109.76Z" fill="#FC6011"/>
</g>
</g>
<g style="mix-blend-mode:multiply">
<mask id="mask1_180_5077" style="mask-type:luminance" maskUnits="userSpaceOnUse" x="82" y="70" width="39" height="39">
<path d="M120.662 70.657H82.353V108.966H120.662V70.657Z" fill="white"/>
</mask>
<g mask="url(#mask1_180_5077)">
<path d="M113.303 108.966H89.712C87.7621 108.96 85.8937 108.183 84.5148 106.804C83.136 105.425 82.3588 103.557 82.353 101.607V78.016C82.3588 76.066 83.136 74.1974 84.5148 72.8185C85.8936 71.4395 87.762 70.6621 89.712 70.656H113.303C115.253 70.6618 117.122 71.4391 118.501 72.8182C119.879 74.1972 120.657 76.0659 120.662 78.016V101.607C120.656 103.557 119.879 105.425 118.5 106.804C117.121 108.183 115.253 108.96 113.303 108.966Z" fill="#FC6011"/>
</g>
</g>
<g style="mix-blend-mode:multiply">
<mask id="mask2_180_5077" style="mask-type:luminance" maskUnits="userSpaceOnUse" x="39" y="118" width="39" height="40">
<path d="M77.412 118.885H39.103V157.194H77.412V118.885Z" fill="white"/>
</mask>
<g mask="url(#mask2_180_5077)">
<path d="M70.0571 157.194H46.4621C44.5121 157.188 42.6435 156.411 41.2645 155.032C39.8855 153.653 39.1081 151.785 39.1021 149.835V126.249C39.1081 124.299 39.8855 122.431 41.2645 121.052C42.6435 119.673 44.5121 118.896 46.4621 118.89H70.0571C72.0069 118.896 73.8752 119.673 75.2539 121.052C76.6326 122.431 77.4096 124.299 77.4151 126.249V149.84C77.4096 151.79 76.6326 153.658 75.2539 155.037C73.8752 156.416 72.0069 157.193 70.0571 157.199" fill="#FC6011"/>
</g>
</g>
<g style="mix-blend-mode:multiply">
<mask id="mask3_180_5077" style="mask-type:luminance" maskUnits="userSpaceOnUse" x="81" y="118" width="39" height="39">
<path d="M119.787 118.09H81.4771V156.399H119.787V118.09Z" fill="white"/>
</mask>
<g mask="url(#mask3_180_5077)">
<path d="M112.428 156.399H88.837C86.8869 156.393 85.0183 155.616 83.6392 154.238C82.2602 152.859 81.4829 150.99 81.4771 149.04V125.45C81.4829 123.5 82.2601 121.631 83.6392 120.252C85.0182 118.873 86.8868 118.096 88.837 118.09H112.428C114.378 118.096 116.247 118.873 117.626 120.252C119.004 121.631 119.782 123.5 119.787 125.45V149.04C119.782 150.99 119.004 152.859 117.626 154.237C116.247 155.616 114.378 156.393 112.428 156.399Z" fill="#FC6011"/>
</g>
</g>
<g style="mix-blend-mode:multiply">
<mask id="mask4_180_5077" style="mask-type:luminance" maskUnits="userSpaceOnUse" x="81" y="164" width="39" height="39">
<path d="M119.787 164.66H81.4771V202.97H119.787V164.66Z" fill="white"/>
</mask>
<g mask="url(#mask4_180_5077)">
<path d="M112.428 202.97H88.837C86.887 202.964 85.0185 202.187 83.6395 200.808C82.2605 199.429 81.4831 197.561 81.4771 195.611V172.02C81.4831 170.07 82.2605 168.201 83.6395 166.822C85.0184 165.443 86.8869 164.666 88.837 164.66H112.428C114.378 164.666 116.247 165.443 117.625 166.822C119.004 168.201 119.781 170.07 119.787 172.02V195.611C119.781 197.561 119.004 199.429 117.625 200.808C116.246 202.187 114.378 202.964 112.428 202.97Z" fill="#FC6011"/>
</g>
</g>
<path d="M114.796 191.017H85.543V193.167H114.796V191.017Z" fill="white"/>
<path d="M97.4619 172.651C97.4613 172.179 97.6008 171.717 97.8627 171.324C98.1245 170.931 98.497 170.624 98.9331 170.443C99.3692 170.262 99.8492 170.214 100.313 170.305C100.776 170.397 101.202 170.624 101.536 170.957C101.87 171.29 102.099 171.716 102.191 172.179C102.284 172.642 102.238 173.122 102.058 173.558C101.878 173.995 101.572 174.368 101.18 174.631C100.788 174.894 100.326 175.035 99.8539 175.036C99.2209 175.035 98.6139 174.784 98.1656 174.337C97.7173 173.89 97.4643 173.284 97.4619 172.651Z" fill="white"/>
<path d="M114.224 189.453H86.4951C86.4951 189.453 85.3781 176.018 100.172 176.424C109.067 176.667 112.349 181.309 113.544 184.983C114.026 186.423 114.256 187.935 114.224 189.453Z" fill="white"/>
<path d="M114.164 17.742C114.364 30.628 97.432 44.742 97.432 44.742C78.739 28.067 80.69 17.742 80.69 17.742C80.6729 15.5332 81.0932 13.3429 81.9267 11.2974C82.7601 9.25184 83.9902 7.39149 85.546 5.82359C87.1019 4.2557 88.9526 3.01127 90.9917 2.16204C93.0307 1.31282 95.2177 0.87561 97.4265 0.87561C99.6354 0.87561 101.822 1.31282 103.861 2.16204C105.9 3.01127 107.751 4.2557 109.307 5.82359C110.863 7.39149 112.093 9.25184 112.926 11.2974C113.76 13.3429 114.181 15.5332 114.164 17.742ZM105.87 17.742C105.871 16.0729 105.377 14.441 104.45 13.0527C103.524 11.6644 102.206 10.5821 100.665 9.94272C99.1228 9.3033 97.426 9.13549 95.7889 9.46051C94.1518 9.78552 92.6478 10.5888 91.4672 11.7686C90.2867 12.9485 89.4825 14.452 89.1565 16.089C88.8305 17.7259 88.9973 19.4228 89.6358 20.9649C90.2743 22.507 91.3559 23.8252 92.7436 24.7526C94.1313 25.68 95.7629 26.175 97.432 26.175C99.6685 26.1753 101.814 25.2876 103.396 23.7071C104.978 22.1266 105.869 19.9825 105.871 17.746" fill="#EDAC4A"/>
<path d="M98.964 96.716C98.964 105.163 96.459 113.421 91.7659 120.445C87.0727 127.469 80.4022 132.943 72.5978 136.176C64.7934 139.409 56.2056 140.254 47.9205 138.606C39.6354 136.958 32.025 132.89 26.0518 126.917C20.0785 120.944 16.0107 113.334 14.3627 105.049C12.7147 96.7634 13.5605 88.1756 16.7932 80.3712C20.0259 72.5668 25.5003 65.8963 32.5241 61.2031C39.5479 56.51 47.8056 54.005 56.253 54.005V96.716H98.964Z" fill="#FFE1A4"/>
<path d="M92.809 96.716C92.8092 103.947 90.6651 111.016 86.6479 117.028C82.6308 123.04 76.9209 127.727 70.2404 130.494C63.5598 133.261 56.2088 133.985 49.1168 132.575C42.0247 131.164 35.5102 127.682 30.3972 122.569C25.2841 117.456 21.8021 110.941 20.3914 103.849C18.9808 96.7572 19.7049 89.4061 22.4722 82.7256C25.2394 76.0451 29.9256 70.3352 35.938 66.318C41.9504 62.3009 49.019 60.1568 56.25 60.157V96.716H92.809Z" fill="#EDAC4A"/>
<path d="M48.9328 77.231C48.933 78.4595 48.5689 79.6604 47.8865 80.6819C47.2042 81.7034 46.2342 82.4997 45.0993 82.9699C43.9644 83.4402 42.7155 83.5633 41.5107 83.3238C40.3058 83.0842 39.199 82.4928 38.3303 81.6242C37.4616 80.7556 36.8699 79.6489 36.6302 78.4441C36.3904 77.2392 36.5134 75.9904 36.9834 74.8554C37.4535 73.7204 38.2496 72.7503 39.271 72.0678C40.2924 71.3853 41.4933 71.021 42.7218 71.021C44.3689 71.021 45.9485 71.6752 47.1133 72.8398C48.278 74.0044 48.9325 75.5839 48.9328 77.231Z" fill="#F25C5C"/>
<path d="M41.2751 110.24C41.2751 111.376 40.9382 112.486 40.3072 113.431C39.6761 114.375 38.7792 115.111 37.7298 115.546C36.6804 115.98 35.5257 116.094 34.4117 115.873C33.2977 115.651 32.2743 115.104 31.4711 114.301C30.668 113.498 30.121 112.474 29.8994 111.36C29.6778 110.246 29.7915 109.092 30.2262 108.042C30.6609 106.993 31.397 106.096 32.3414 105.465C33.2859 104.834 34.3962 104.497 35.5321 104.497C36.2862 104.497 37.033 104.645 37.7298 104.934C38.4266 105.223 39.0597 105.646 39.593 106.179C40.1263 106.712 40.5493 107.345 40.8379 108.042C41.1265 108.739 41.2751 109.486 41.2751 110.24Z" fill="#F25C5C"/>
<path d="M48.2087 100.732C48.2087 101.275 48.0478 101.805 47.7462 102.257C47.4446 102.708 47.016 103.06 46.5146 103.267C46.0131 103.475 45.4613 103.529 44.929 103.423C44.3967 103.317 43.9078 103.056 43.524 102.672C43.1403 102.288 42.8791 101.799 42.7733 101.267C42.6675 100.734 42.722 100.183 42.9299 99.6813C43.1377 99.1799 43.4896 98.7514 43.941 98.45C44.3924 98.1486 44.9229 97.9878 45.4657 97.988C46.1933 97.9883 46.891 98.2775 47.4054 98.7921C47.9198 99.3067 48.2087 100.004 48.2087 100.732Z" fill="#F25C5C"/>
<path d="M52.3778 117.45C52.3778 118.22 52.1495 118.972 51.7219 119.612C51.2942 120.252 50.6863 120.751 49.9752 121.046C49.264 121.34 48.4814 121.417 47.7265 121.267C46.9715 121.117 46.278 120.746 45.7337 120.202C45.1894 119.658 44.8187 118.964 44.6685 118.209C44.5184 117.454 44.5955 116.672 44.89 115.961C45.1846 115.249 45.6835 114.642 46.3235 114.214C46.9635 113.786 47.716 113.558 48.4858 113.558C49.518 113.558 50.5079 113.968 51.2378 114.698C51.9677 115.428 52.3778 116.418 52.3778 117.45Z" fill="#F25C5C"/>
<path d="M69.606 107.305C69.606 108.062 69.3814 108.802 68.9608 109.432C68.5401 110.061 67.9422 110.552 67.2427 110.842C66.5431 111.131 65.7734 111.207 65.0308 111.059C64.2882 110.912 63.6061 110.547 63.0708 110.011C62.5355 109.476 62.171 108.794 62.0234 108.051C61.8758 107.309 61.9518 106.539 62.2416 105.839C62.5315 105.14 63.0223 104.542 63.652 104.122C64.2816 103.701 65.0218 103.477 65.779 103.477C66.7941 103.477 67.7674 103.881 68.4851 104.598C69.2028 105.316 69.606 106.29 69.606 107.305Z" fill="#F25C5C"/>
<path d="M81.6018 110.175C81.6018 110.844 81.4035 111.498 81.0318 112.054C80.6602 112.61 80.1319 113.044 79.5139 113.3C78.8959 113.556 78.2158 113.622 77.5597 113.492C76.9037 113.361 76.301 113.039 75.8281 112.566C75.3552 112.093 75.0331 111.49 74.9028 110.834C74.7724 110.178 74.8395 109.498 75.0956 108.88C75.3518 108.262 75.7854 107.734 76.3417 107.362C76.898 106.991 77.5519 106.793 78.2209 106.793C79.1177 106.793 79.9776 107.15 80.6117 107.784C81.2457 108.418 81.6018 109.278 81.6018 110.175Z" fill="#F25C5C"/>
<path d="M95.3831 93.9339H59.6531V58.2059C64.3455 58.2049 68.9921 59.1283 73.3276 60.9236C77.663 62.7188 81.6023 65.3506 84.9203 68.6687C88.2384 71.9867 90.8702 75.926 92.6654 80.2614C94.4606 84.5968 95.3841 89.2435 95.3831 93.9359" fill="#FFE1A4"/>
<path d="M90.2381 93.933H59.6531V63.349C63.6698 63.3479 67.6473 64.1383 71.3585 65.6749C75.0696 67.2115 78.4416 69.4643 81.2819 72.3044C84.1222 75.1446 86.3751 78.5166 87.9118 82.2277C89.4485 85.9388 90.239 89.9163 90.2381 93.933Z" fill="#EDAC4A"/>
<path d="M76.3072 75.5669C76.3072 76.4965 76.0316 77.4052 75.5151 78.1781C74.9987 78.951 74.2647 79.5534 73.4059 79.9092C72.5471 80.2649 71.602 80.358 70.6903 80.1766C69.7786 79.9953 68.9412 79.5477 68.2839 78.8904C67.6265 78.233 67.1789 77.3956 66.9975 76.4839C66.8162 75.5722 66.9093 74.6271 67.265 73.7683C67.6207 72.9095 68.2232 72.1755 68.9961 71.659C69.769 71.1426 70.6776 70.8669 71.6072 70.8669C72.2244 70.8669 72.8356 70.9885 73.4059 71.2247C73.9761 71.4609 74.4942 71.8071 74.9306 72.2435C75.3671 72.68 75.7132 73.1981 75.9494 73.7683C76.1856 74.3386 76.3072 74.9497 76.3072 75.5669Z" fill="#F25C5C"/>
<path d="M69.6171 86.315C69.6173 87.0049 69.4129 87.6794 69.0297 88.2531C68.6466 88.8268 68.102 89.2741 67.4646 89.5382C66.8273 89.8024 66.1259 89.8716 65.4492 89.7371C64.7726 89.6026 64.151 89.2705 63.663 88.7827C63.1751 88.295 62.8429 87.6735 62.7082 86.9968C62.5735 86.3202 62.6425 85.6188 62.9065 84.9814C63.1705 84.344 63.6176 83.7992 64.1912 83.4159C64.7648 83.0326 65.4392 82.828 66.1291 82.828C67.0539 82.8283 67.9408 83.1957 68.5949 83.8496C69.2489 84.5034 69.6166 85.3902 69.6171 86.315Z" fill="#F25C5C"/>
<path d="M82.7117 89.807C82.7117 90.3213 82.5592 90.8239 82.2735 91.2515C81.9878 91.6791 81.5818 92.0123 81.1067 92.2091C80.6316 92.4059 80.1089 92.4574 79.6045 92.3571C79.1002 92.2567 78.6368 92.0091 78.2732 91.6455C77.9096 91.2819 77.662 90.8186 77.5617 90.3143C77.4614 89.8099 77.5128 89.2871 77.7096 88.8121C77.9064 88.337 78.2397 87.9309 78.6673 87.6452C79.0948 87.3595 79.5975 87.207 80.1117 87.207C80.8013 87.207 81.4626 87.481 81.9502 87.9686C82.4378 88.4562 82.7117 89.1175 82.7117 89.807Z" fill="#F25C5C"/>
<path d="M35.8189 89.295C34.0009 87.409 32.1836 85.5224 30.3669 83.635C30.1128 83.4228 29.7849 83.3198 29.4551 83.3486C29.1252 83.3775 28.8203 83.5358 28.6069 83.789C28.4025 84.0463 28.3045 84.3721 28.333 84.6995C28.3614 85.0268 28.5142 85.3308 28.7599 85.549C30.5772 87.435 32.3946 89.3217 34.2119 91.209C34.4661 91.421 34.7939 91.5238 35.1237 91.495C35.4534 91.4661 35.7584 91.308 35.9719 91.055C36.1761 90.7976 36.2739 90.4719 36.2454 90.1446C36.217 89.8173 36.0644 89.5133 35.8189 89.295Z" fill="#FFE1A4"/>
<path d="M31.9091 95.437C31.7135 95.1723 31.4232 94.9933 31.0988 94.9374C30.7745 94.8815 30.441 94.953 30.1681 95.137L25.1801 98.362C24.9113 98.5546 24.7292 98.8452 24.6731 99.171C24.6169 99.4968 24.6913 99.8316 24.8801 100.103C25.0755 100.368 25.3656 100.547 25.6898 100.603C26.0141 100.658 26.3473 100.587 26.6201 100.403L31.6081 97.178C31.8764 96.9851 32.0582 96.6946 32.1143 96.3689C32.1705 96.0433 32.0974 95.7086 31.9091 95.437Z" fill="#FFE1A4"/>
<path d="M42.0351 86.117C41.7105 86.064 41.3781 86.1385 41.1071 86.3248C40.8362 86.5112 40.6477 86.795 40.5811 87.117C40.1571 89.2397 39.7334 91.3617 39.3101 93.483C39.2529 93.8083 39.3255 94.1431 39.5125 94.4153C39.6995 94.6876 39.9859 94.8756 40.3101 94.939C40.6346 94.992 40.9671 94.9175 41.238 94.7312C41.5089 94.5448 41.6974 94.261 41.7641 93.939C42.1881 91.8163 42.6117 89.694 43.0351 87.572C43.0912 87.2471 43.018 86.9131 42.8311 86.6414C42.6443 86.3697 42.3586 86.1809 42.0351 86.117Z" fill="#FFE1A4"/>
<path d="M52.7619 90.603C52.6389 90.2982 52.4037 90.0521 52.1048 89.9154C51.8059 89.7787 51.466 89.7617 51.1549 89.868L45.8289 91.2529C45.5194 91.3695 45.2685 91.6038 45.1309 91.9047C44.9934 92.2056 44.9805 92.5486 45.0949 92.859C45.2174 93.164 45.4522 93.4104 45.7511 93.5474C46.0499 93.6843 46.3899 93.7014 46.701 93.595L52.0269 92.2099C52.3366 92.0931 52.5875 91.8587 52.7252 91.5577C52.8628 91.2568 52.8761 90.9136 52.7619 90.603Z" fill="#FFE1A4"/>
<path d="M53.1811 71.833C53.1498 71.5041 52.9906 71.2007 52.7377 70.9882C52.4847 70.7757 52.1584 70.6711 51.8291 70.697C51.5018 70.7326 51.2009 70.8932 50.9891 71.1453C50.7772 71.3973 50.6709 71.7214 50.6921 72.05L50.9241 77.143C50.9556 77.4719 51.1151 77.7753 51.3681 77.9878C51.6212 78.2003 51.9476 78.3049 52.2771 78.279C52.6044 78.2436 52.9054 78.083 53.1171 77.8309C53.3288 77.5787 53.4349 77.2545 53.4131 76.926L53.1811 71.833Z" fill="#FFE1A4"/>
<path d="M49.1669 64.7949L44.9999 65.6049C44.6732 65.645 44.372 65.802 44.152 66.0469C43.9928 66.2362 43.8934 66.4684 43.8664 66.7141C43.8393 66.9599 43.8858 67.2082 44 67.4275C44.1141 67.6468 44.2908 67.8273 44.5076 67.9461C44.7244 68.0649 44.9717 68.1167 45.2179 68.0949L49.3849 67.2849C49.7118 67.2451 50.0131 67.0881 50.233 66.8429C50.3916 66.6536 50.4905 66.4214 50.5173 66.1759C50.5441 65.9303 50.4975 65.6823 50.3835 65.4631C50.2694 65.244 50.093 65.0636 49.8765 64.9447C49.6599 64.8257 49.413 64.7736 49.1669 64.7949Z" fill="#FFE1A4"/>
<path d="M34.1727 72.196C33.8721 72.0593 33.5299 72.0456 33.2192 72.1577C32.9085 72.2698 32.6539 72.4988 32.5098 72.796L30.8817 76.844C30.74 77.1437 30.7231 77.4874 30.8348 77.7996C30.9465 78.1118 31.1776 78.3668 31.4772 78.5085C31.7769 78.6503 32.1207 78.6672 32.4328 78.5555C32.745 78.4438 33 78.2127 33.1417 77.913L34.7688 73.864C34.9039 73.5631 34.9168 73.2215 34.8049 72.9112C34.6929 72.601 34.4649 72.3463 34.1688 72.201" fill="#FFE1A4"/>
<path d="M27.4549 107.257C27.426 106.927 27.2671 106.622 27.0133 106.409C26.7595 106.196 26.4315 106.093 26.1014 106.121C25.7714 106.15 25.4663 106.309 25.2534 106.563C25.0404 106.817 24.937 107.145 24.9659 107.475C25.2759 109.327 25.5846 111.179 25.8919 113.03C25.9207 113.36 26.0794 113.665 26.3331 113.878C26.5869 114.091 26.9149 114.195 27.2449 114.166C27.575 114.137 27.8801 113.978 28.0931 113.725C28.3062 113.471 28.4097 113.143 28.3809 112.813L27.4549 107.257Z" fill="#FFE1A4"/>
<path d="M51.937 104.577L46.265 105.85C45.9385 105.892 45.6375 106.048 45.416 106.292C45.2059 106.547 45.1029 106.874 45.129 107.204C45.208 107.804 45.799 108.493 46.482 108.34L52.155 107.063C52.4811 107.021 52.7818 106.864 53.003 106.621C53.214 106.366 53.317 106.039 53.29 105.709C53.211 105.109 52.62 104.42 51.938 104.573" fill="#FFE1A4"/>
<path d="M58.589 101.353C58.5747 101.189 58.5283 101.03 58.4526 100.885C58.3768 100.739 58.2731 100.61 58.1474 100.505C58.0217 100.399 57.8765 100.32 57.72 100.27C57.5636 100.221 57.399 100.203 57.2355 100.217C57.0721 100.232 56.9131 100.278 56.7676 100.354C56.6221 100.43 56.4929 100.533 56.3875 100.659C56.282 100.785 56.2023 100.93 56.153 101.086C56.1037 101.243 56.0857 101.407 56.1 101.571C56.448 103.694 56.7954 105.816 57.142 107.937C57.1533 108.103 57.1975 108.264 57.272 108.413C57.3466 108.561 57.45 108.693 57.5762 108.801C57.7024 108.909 57.8488 108.991 58.007 109.041C58.1651 109.092 58.3317 109.111 58.4971 109.096C58.6626 109.082 58.8234 109.034 58.9703 108.957C59.1172 108.88 59.2472 108.774 59.3527 108.645C59.4582 108.517 59.537 108.369 59.5847 108.21C59.6323 108.051 59.6477 107.884 59.63 107.719L58.589 101.353Z" fill="#FFE1A4"/>
<path d="M62.7962 114.284L55.6231 112.076C55.2979 112.017 54.9626 112.089 54.6903 112.277C54.4179 112.464 54.2306 112.751 54.1691 113.076C54.1186 113.4 54.194 113.732 54.3799 114.003C54.5658 114.273 54.8482 114.463 55.1691 114.532L62.3421 116.739C62.6674 116.798 63.003 116.726 63.2755 116.539C63.5479 116.352 63.7352 116.064 63.7962 115.739C63.8464 115.415 63.7707 115.084 63.5849 114.813C63.399 114.543 63.1168 114.354 62.7962 114.285" fill="#FFE1A4"/>
<path d="M76.0417 100.678C75.9252 100.374 75.6974 100.127 75.4047 99.985C75.104 99.8475 74.7614 99.8333 74.4503 99.9454C74.1392 100.058 73.8845 100.287 73.7408 100.585L72.0048 105.677C71.8727 105.985 71.8577 106.33 71.9628 106.648C72.0486 106.878 72.2003 107.078 72.3989 107.222C72.5976 107.367 72.8343 107.449 73.0797 107.46C73.325 107.471 73.568 107.409 73.7784 107.282C73.9889 107.156 74.1573 106.97 74.2628 106.748L75.9977 101.644C76.1293 101.337 76.1442 100.992 76.0397 100.674" fill="#FFE1A4"/>
<path d="M86.8638 102.036C86.6631 101.784 86.384 101.606 86.0708 101.53L81.9028 100.256C81.7389 100.226 81.5708 100.23 81.4082 100.266C81.2456 100.302 81.0918 100.37 80.9558 100.466C80.8214 100.56 80.707 100.68 80.6192 100.819C80.5313 100.958 80.4717 101.112 80.4439 101.274C80.416 101.436 80.4204 101.602 80.4567 101.762C80.4931 101.922 80.5607 102.073 80.6558 102.207C80.8561 102.459 81.1347 102.638 81.4478 102.715L85.6157 103.988C85.7796 104.018 85.9478 104.014 86.1104 103.978C86.273 103.942 86.4268 103.874 86.5628 103.778C86.697 103.684 86.8113 103.564 86.8991 103.425C86.9868 103.286 87.0464 103.132 87.0742 102.97C87.1021 102.808 87.0978 102.642 87.0615 102.482C87.0252 102.322 86.9577 102.171 86.8628 102.037" fill="#FFE1A4"/>
<path d="M85.0341 112.421C84.7786 112.212 84.4514 112.111 84.1223 112.139C83.7933 112.168 83.4885 112.324 83.2731 112.575L80.1492 117.09C79.9445 117.348 79.842 117.673 79.8612 118.002C79.8831 118.248 79.9773 118.482 80.1319 118.674C80.2865 118.866 80.4947 119.008 80.73 119.082C80.9653 119.157 81.2173 119.159 81.4542 119.09C81.6912 119.021 81.9024 118.884 82.0612 118.695L85.1862 114.181C85.3908 113.923 85.493 113.598 85.4732 113.269C85.4427 112.94 85.2857 112.635 85.0341 112.421Z" fill="#FFE1A4"/>
<path d="M74.8681 121.046C74.4814 119.349 74.0955 117.651 73.7101 115.953C73.5971 115.647 73.3683 115.398 73.0731 115.259C72.7677 115.119 72.4192 115.104 72.1031 115.218C71.7987 115.333 71.5505 115.561 71.4101 115.854C71.2871 116.163 71.2723 116.505 71.3681 116.824L72.5261 121.917C72.6398 122.223 72.8684 122.472 73.1631 122.611C73.4684 122.752 73.817 122.767 74.1331 122.652C74.4377 122.538 74.686 122.31 74.8261 122.016C74.9496 121.707 74.9644 121.365 74.8681 121.046Z" fill="#FFE1A4"/>
<path d="M66.3008 120.043L60.1647 120.609C59.8395 120.644 59.541 120.805 59.3332 121.057C59.1254 121.31 59.0251 121.634 59.0536 121.96C59.0821 122.286 59.2374 122.587 59.4859 122.8C59.7344 123.013 60.0564 123.119 60.3828 123.097L66.5187 122.532C66.8488 122.503 67.1539 122.344 67.3668 122.09C67.5798 121.837 67.6832 121.509 67.6542 121.178C67.6253 120.848 67.4665 120.543 67.2127 120.33C66.9589 120.117 66.6309 120.014 66.3008 120.043Z" fill="#FFE1A4"/>
<path d="M67.3101 125.274C67.1159 125.007 66.8253 124.826 66.5 124.77C66.1747 124.714 65.8404 124.787 65.5681 124.974C63.9874 126.247 62.4058 127.521 60.8231 128.795C60.6845 128.888 60.5659 129.007 60.4743 129.147C60.3826 129.286 60.3198 129.442 60.2895 129.606C60.2593 129.77 60.2622 129.939 60.2981 130.102C60.3339 130.264 60.4021 130.419 60.4984 130.555C60.5948 130.691 60.7175 130.806 60.8592 130.894C61.0009 130.982 61.1588 131.041 61.3236 131.067C61.4883 131.093 61.6566 131.085 61.8185 131.045C61.9804 131.005 62.1325 130.933 62.2661 130.833C63.8481 129.561 65.4301 128.288 67.0121 127.013C67.2779 126.818 67.4577 126.528 67.5136 126.203C67.5696 125.878 67.4974 125.544 67.3121 125.272" fill="#FFE1A4"/>
<path d="M54.796 127.612L50.8599 123.446C50.7344 123.34 50.5891 123.261 50.4326 123.211C50.2761 123.162 50.1114 123.144 49.948 123.158C49.6187 123.19 49.3147 123.348 49.0999 123.6C48.8878 123.854 48.7846 124.182 48.8129 124.512C48.8598 124.836 49.0148 125.135 49.253 125.36L53.1889 129.527C53.4429 129.74 53.7709 129.843 54.101 129.815C54.4303 129.783 54.7343 129.625 54.9489 129.373C55.1611 129.119 55.2642 128.791 55.2359 128.461C55.1893 128.136 55.0343 127.837 54.796 127.612Z" fill="#FFE1A4"/>
<path d="M43.7301 122.242C41.7241 122.549 39.7178 122.855 37.7111 123.161C37.3854 123.195 37.0863 123.356 36.8781 123.609C36.6699 123.862 36.5694 124.186 36.5981 124.513C36.6268 124.839 36.7825 125.141 37.0316 125.353C37.2807 125.566 37.6034 125.672 37.9301 125.649L43.9491 124.73C44.2792 124.701 44.5842 124.542 44.7972 124.288C45.0101 124.035 45.1135 123.707 45.0846 123.376C45.0557 123.046 44.8968 122.741 44.643 122.528C44.3892 122.315 44.0611 122.212 43.7311 122.241" fill="#FFE1A4"/>
<path d="M37.998 118.863L31.979 116.898C31.6775 116.766 31.3371 116.755 31.0276 116.867C30.7181 116.978 30.4631 117.204 30.315 117.498C30.1772 117.799 30.1629 118.141 30.2751 118.453C30.3873 118.764 30.6171 119.018 30.915 119.162L36.935 121.126C37.2363 121.258 37.5768 121.269 37.8862 121.158C38.1957 121.046 38.4504 120.82 38.598 120.526C38.7358 120.225 38.7501 119.883 38.6379 119.572C38.5257 119.261 38.296 119.006 37.998 118.863Z" fill="#FFE1A4"/>
<path d="M74.7551 82.2919C74.4307 82.2407 74.0991 82.3159 73.8286 82.502C73.5581 82.688 73.3693 82.9708 73.3011 83.2919C72.8004 85.1439 72.3004 86.9959 71.8011 88.8479C71.7426 89.1732 71.8147 89.5083 72.002 89.7806C72.1893 90.0529 72.4764 90.2402 72.8011 90.3019C73.1254 90.3532 73.457 90.278 73.7275 90.0919C73.9981 89.9059 74.1869 89.6231 74.2551 89.3019C74.7557 87.4499 75.2557 85.5979 75.7551 83.7459C75.813 83.4208 75.7406 83.0859 75.5535 82.8137C75.3663 82.5416 75.0794 82.3541 74.7551 82.2919Z" fill="#FFE1A4"/>
<path d="M83.9783 83.022C83.7907 82.7553 83.5053 82.5734 83.1843 82.516L79.8283 82.168C79.4968 82.1169 79.1582 82.1918 78.8793 82.378C78.6162 82.5687 78.4353 82.8521 78.3732 83.171C78.3439 83.3351 78.3473 83.5033 78.3834 83.6661C78.4194 83.8288 78.4874 83.9827 78.5833 84.119C78.7706 84.3861 79.0561 84.568 79.3773 84.625L82.7333 84.973C83.0645 85.0248 83.403 84.9498 83.6813 84.763C83.9518 84.5718 84.1353 84.281 84.1915 83.9546C84.2478 83.6282 84.1722 83.2928 83.9813 83.022" fill="#FFE1A4"/>
<path d="M79.9571 74.186C79.6323 74.1312 79.299 74.2049 79.0276 74.3916C78.7562 74.5782 78.5681 74.8631 78.5031 75.186C78.3117 76.5373 78.1211 77.888 77.9311 79.238C77.8802 79.5601 77.9572 79.8893 78.1456 80.1555C78.334 80.4216 78.619 80.6036 78.9397 80.6626C79.2604 80.7215 79.5915 80.6529 79.8623 80.4712C80.133 80.2895 80.3221 80.0091 80.3891 79.69C80.5791 78.34 80.7694 76.9893 80.9601 75.638C81.0141 75.3133 80.9401 74.9804 80.7536 74.7092C80.567 74.438 80.2826 74.2497 79.9601 74.184" fill="#FFE1A4"/>
<g style="mix-blend-mode:multiply">
<mask id="mask5_180_5077" style="mask-type:luminance" maskUnits="userSpaceOnUse" x="39" y="165" width="39" height="39">
<path d="M77.412 165.454H39.103V203.764H77.412V165.454Z" fill="white"/>
</mask>
<g mask="url(#mask5_180_5077)">
<path d="M70.0571 203.764H46.4621C44.5121 203.758 42.6435 202.981 41.2645 201.602C39.8855 200.223 39.1081 198.355 39.1021 196.405V172.814C39.1079 170.864 39.8851 168.995 41.2642 167.616C42.6432 166.237 44.5119 165.46 46.4621 165.454H70.0571C72.0071 165.46 73.8756 166.237 75.2543 167.616C76.633 168.995 77.4098 170.864 77.4151 172.814V196.405C77.4096 198.355 76.6326 200.223 75.2539 201.602C73.8752 202.981 72.0069 203.758 70.0571 203.764Z" fill="#FC6011"/>
</g>
</g>
<path d="M66.6161 69.4819L64.6491 66.3569C64.4563 66.0881 64.1656 65.906 63.8396 65.8498C63.5136 65.7937 63.1786 65.8681 62.9071 66.0569C62.6424 66.2529 62.4636 66.5433 62.4077 66.8678C62.3518 67.1922 62.4232 67.5258 62.6071 67.7989L64.5741 70.9229C64.7665 71.1919 65.0571 71.3742 65.383 71.4304C65.7089 71.4865 66.0438 71.412 66.3151 71.2229C66.5796 71.0272 66.7585 70.7369 66.8143 70.4126C66.8702 70.0883 66.7988 69.7549 66.6151 69.4819" fill="#FFE1A4"/>
<path d="M65.5842 73.758C65.3282 73.5499 65.0012 73.4496 64.6726 73.4783C64.3439 73.5071 64.0393 73.6626 63.8233 73.912C62.8939 75.1053 61.9632 76.2977 61.0312 77.489C60.8275 77.744 60.7316 78.0685 60.764 78.3933C60.7964 78.7181 60.9545 79.0173 61.2046 79.227C61.4547 79.4367 61.7769 79.5403 62.1023 79.5156C62.4277 79.491 62.7306 79.34 62.9462 79.095C63.8796 77.9017 64.8102 76.7093 65.7382 75.518C65.9465 75.2622 66.047 74.9354 66.0182 74.6068C65.9894 74.2782 65.8338 73.9737 65.5842 73.758Z" fill="#FFE1A4"/>
</svg>
