<svg width="375" height="406" viewBox="0 0 375 406" fill="none" xmlns="http://www.w3.org/2000/svg">
<path opacity="0.28" d="M358 406H291C286.837 406.002 282.817 404.476 279.705 401.711C276.593 398.946 274.604 395.135 274.116 391H273.899C270.695 370.385 260.226 351.594 244.382 338.022C228.537 324.449 208.362 316.989 187.499 316.989C166.636 316.989 146.461 324.449 130.616 338.022C114.772 351.594 104.303 370.385 101.099 391H100.88C100.393 395.134 98.4046 398.946 95.293 401.711C92.1813 404.476 88.1627 406.002 84 406H17C12.8366 406.003 8.81719 404.477 5.70459 401.712C2.59199 398.946 0.603102 395.135 0.115234 391H0V24H375V391H374.882C374.395 395.134 372.407 398.946 369.294 401.711C366.182 404.476 362.163 406.003 358 406Z" fill="#4A4B4D"/>
<path d="M358 382H291C286.837 382.002 282.817 380.476 279.705 377.711C276.593 374.946 274.604 371.135 274.116 367H273.899C270.695 346.385 260.226 327.594 244.382 314.022C228.537 300.449 208.362 292.989 187.499 292.989C166.636 292.989 146.461 300.449 130.616 314.022C114.772 327.594 104.303 346.385 101.099 367H100.88C100.393 371.134 98.4046 374.946 95.293 377.711C92.1813 380.476 88.1627 382.002 84 382H17C12.8366 382.003 8.81719 380.477 5.70459 377.712C2.59199 374.946 0.603102 371.135 0.115234 367H0V0H375V367H374.882C374.395 371.134 372.407 374.946 369.294 377.711C366.182 380.476 362.163 382.003 358 382Z" fill="#FC6011"/>
<mask id="mask0_180_4648" style="mask-type:luminance" maskUnits="userSpaceOnUse" x="0" y="0" width="375" height="391">
<path d="M358 391H291C286.837 391.003 282.817 389.44 279.705 386.61C276.593 383.78 274.604 379.879 274.116 375.647H273.899C270.695 354.545 260.226 335.312 244.382 321.42C228.537 307.528 208.362 299.892 187.499 299.892C166.636 299.892 146.461 307.528 130.616 321.42C114.772 335.312 104.303 354.545 101.099 375.647H100.88C100.393 379.878 98.4046 383.779 95.293 386.61C92.1813 389.44 88.1627 391.002 84 391H17C12.8366 391.003 8.81719 389.441 5.70459 386.611C2.59199 383.78 0.603102 379.879 0.115234 375.647H0V0H375V375.647H374.882C374.395 379.878 372.407 383.78 369.294 386.61C366.182 389.441 362.163 391.003 358 391Z" fill="white"/>
</mask>
<g mask="url(#mask0_180_4648)">
<path opacity="0.14" d="M28 123C77.1534 123 117 83.1534 117 34C117 -15.1533 77.1534 -55 28 -55C-21.1533 -55 -61 -15.1533 -61 34C-61 83.1534 -21.1533 123 28 123Z" fill="white"/>
<path opacity="0.14" d="M310.5 130C390.305 130 455 65.3051 455 -14.5C455 -94.3051 390.305 -159 310.5 -159C230.695 -159 166 -94.3051 166 -14.5C166 65.3051 230.695 130 310.5 130Z" fill="white"/>
<path opacity="0.14" d="M73.5 182C102.495 182 126 158.495 126 129.5C126 100.505 102.495 77 73.5 77C44.5051 77 21 100.505 21 129.5C21 158.495 44.5051 182 73.5 182Z" fill="white"/>
<path opacity="0.21" d="M160 136C164.971 136 169 131.971 169 127C169 122.029 164.971 118 160 118C155.029 118 151 122.029 151 127C151 131.971 155.029 136 160 136Z" fill="white"/>
<path opacity="0.21" d="M159.5 232C163.09 232 166 229.09 166 225.5C166 221.91 163.09 219 159.5 219C155.91 219 153 221.91 153 225.5C153 229.09 155.91 232 159.5 232Z" fill="white"/>
<path opacity="0.21" d="M371.5 349C377.299 349 382 344.299 382 338.5C382 332.701 377.299 328 371.5 328C365.701 328 361 332.701 361 338.5C361 344.299 365.701 349 371.5 349Z" fill="white"/>
<path opacity="0.21" d="M238.5 159C246.508 159 253 152.508 253 144.5C253 136.492 246.508 130 238.5 130C230.492 130 224 136.492 224 144.5C224 152.508 230.492 159 238.5 159Z" fill="white"/>
<path opacity="0.14" d="M28 451C92.065 451 144 399.065 144 335C144 270.935 92.065 219 28 219C-36.065 219 -88 270.935 -88 335C-88 399.065 -36.065 451 28 451Z" fill="white"/>
<g opacity="0.18">
<path d="M424.12 256.176C424.12 260.348 420.408 263.753 415.879 263.753H232.241C227.712 263.753 224 260.348 224 256.176C224 252.021 227.712 248.633 232.241 248.633H415.879C420.408 248.629 424.12 252.017 424.12 256.176ZM333.672 161.161C333.558 158.695 332.5 156.367 330.717 154.66C328.933 152.953 326.562 151.997 324.093 151.99C321.624 151.983 319.247 152.927 317.455 154.625C315.663 156.322 314.592 158.645 314.465 161.11C320.844 160.321 327.297 160.339 333.672 161.161ZM408.489 241.938H239.631C241.306 220.695 250.927 200.864 266.576 186.4C282.225 171.937 302.751 163.904 324.06 163.904C345.369 163.904 365.895 171.937 381.544 186.4C397.193 200.864 406.814 220.695 408.489 241.938ZM314.397 171.326C314.397 171.326 267.062 181.644 252.929 234.054H270.829C270.829 234.054 280.734 190.345 314.397 171.326Z" fill="white"/>
</g>
</g>
</svg>
